<?xml version="1.0" encoding="UTF-8" standalone="no"?>
<!DOCTYPE svg PUBLIC "-//W3C//DTD SVG 1.1//EN"
 "http://www.w3.org/Graphics/SVG/1.1/DTD/svg11.dtd">
<!-- Generated by graphviz version 2.43.0 (0)
 -->
<!-- Title: G Pages: 1 -->
<svg width="413pt" height="303pt"
 viewBox="0.00 0.00 412.50 303.00" xmlns="http://www.w3.org/2000/svg" xmlns:xlink="http://www.w3.org/1999/xlink">
<g id="graph0" class="graph" transform="scale(1 1) rotate(0) translate(4 299)">
<title>G</title>
<polygon fill="lemonchiffon" stroke="transparent" points="-4,4 -4,-299 408.5,-299 408.5,4 -4,4"/>
<!-- node_0x638870e0a2f0 -->
<g id="node1" class="node">
<title>node_0x638870e0a2f0</title>
<path fill="lightgray" stroke="#000000" stroke-width="2.5" d="M35,-202.5C35,-202.5 364,-202.5 364,-202.5 370,-202.5 376,-208.5 376,-214.5 376,-214.5 376,-282.5 376,-282.5 376,-288.5 370,-294.5 364,-294.5 364,-294.5 35,-294.5 35,-294.5 29,-294.5 23,-288.5 23,-282.5 23,-282.5 23,-214.5 23,-214.5 23,-208.5 29,-202.5 35,-202.5"/>
<text text-anchor="middle" x="199.5" y="-279.3" font-family="Helvetica,sans-Serif" font-size="14.00" fill="#000000">node_0x638870e0a2f0</text>
<polyline fill="none" stroke="#000000" stroke-width="2.5" points="23,-271.5 376,-271.5 "/>
<text text-anchor="middle" x="199.5" y="-256.3" font-family="Helvetica,sans-Serif" font-size="14.00" fill="#000000">key: 5</text>
<polyline fill="none" stroke="#000000" stroke-width="2.5" points="23,-248.5 376,-248.5 "/>
<text text-anchor="middle" x="199.5" y="-233.3" font-family="Helvetica,sans-Serif" font-size="14.00" fill="#000000">parent: 0</text>
<polyline fill="none" stroke="#000000" stroke-width="2.5" points="23,-225.5 376,-225.5 "/>
<text text-anchor="middle" x="108.5" y="-210.3" font-family="Helvetica,sans-Serif" font-size="14.00" fill="#000000">left: 0x638870e0a350</text>
<polyline fill="none" stroke="#000000" stroke-width="2.5" points="194,-202.5 194,-225.5 "/>
<text text-anchor="middle" x="285" y="-210.3" font-family="Helvetica,sans-Serif" font-size="14.00" fill="#000000">right: 0x638870e0a320</text>
</g>
<!-- node_0x638870e0a350 -->
<g id="node2" class="node">
<title>node_0x638870e0a350</title>
<path fill="salmon" stroke="#000000" stroke-width="2.5" d="M12,-73.5C12,-73.5 179,-73.5 179,-73.5 185,-73.5 191,-79.5 191,-85.5 191,-85.5 191,-153.5 191,-153.5 191,-159.5 185,-165.5 179,-165.5 179,-165.5 12,-165.5 12,-165.5 6,-165.5 0,-159.5 0,-153.5 0,-153.5 0,-85.5 0,-85.5 0,-79.5 6,-73.5 12,-73.5"/>
<text text-anchor="middle" x="95.5" y="-150.3" font-family="Helvetica,sans-Serif" font-size="14.00" fill="#000000">node_0x638870e0a350</text>
<polyline fill="none" stroke="#000000" stroke-width="2.5" points="0,-142.5 191,-142.5 "/>
<text text-anchor="middle" x="95.5" y="-127.3" font-family="Helvetica,sans-Serif" font-size="14.00" fill="#000000">key: 4</text>
<polyline fill="none" stroke="#000000" stroke-width="2.5" points="0,-119.5 191,-119.5 "/>
<text text-anchor="middle" x="95.5" y="-104.3" font-family="Helvetica,sans-Serif" font-size="14.00" fill="#000000">parent: 0x638870e0a2f0</text>
<polyline fill="none" stroke="#000000" stroke-width="2.5" points="0,-96.5 191,-96.5 "/>
<text text-anchor="middle" x="44.5" y="-81.3" font-family="Helvetica,sans-Serif" font-size="14.00" fill="#000000">left: 0</text>
<polyline fill="none" stroke="#000000" stroke-width="2.5" points="89,-73.5 89,-96.5 "/>
<text text-anchor="middle" x="140" y="-81.3" font-family="Helvetica,sans-Serif" font-size="14.00" fill="#000000">right: 0</text>
</g>
<!-- node_0x638870e0a2f0&#45;&gt;node_0x638870e0a350 -->
<g id="edge1" class="edge">
<title>node_0x638870e0a2f0&#45;&gt;node_0x638870e0a350</title>
<path fill="none" stroke="black" d="M162.54,-202.37C154.97,-193.12 146.93,-183.31 139.15,-173.8"/>
<polygon fill="black" stroke="black" points="141.73,-171.43 132.69,-165.92 136.32,-175.87 141.73,-171.43"/>
</g>
<!-- node_0x638870e0a320 -->
<g id="node3" class="node">
<title>node_0x638870e0a320</title>
<path fill="salmon" stroke="#000000" stroke-width="2.5" d="M221,-73.5C221,-73.5 388,-73.5 388,-73.5 394,-73.5 400,-79.5 400,-85.5 400,-85.5 400,-153.5 400,-153.5 400,-159.5 394,-165.5 388,-165.5 388,-165.5 221,-165.5 221,-165.5 215,-165.5 209,-159.5 209,-153.5 209,-153.5 209,-85.5 209,-85.5 209,-79.5 215,-73.5 221,-73.5"/>
<text text-anchor="middle" x="304.5" y="-150.3" font-family="Helvetica,sans-Serif" font-size="14.00" fill="#000000">node_0x638870e0a320</text>
<polyline fill="none" stroke="#000000" stroke-width="2.5" points="209,-142.5 400,-142.5 "/>
<text text-anchor="middle" x="304.5" y="-127.3" font-family="Helvetica,sans-Serif" font-size="14.00" fill="#000000">key: 6</text>
<polyline fill="none" stroke="#000000" stroke-width="2.5" points="209,-119.5 400,-119.5 "/>
<text text-anchor="middle" x="304.5" y="-104.3" font-family="Helvetica,sans-Serif" font-size="14.00" fill="#000000">parent: 0x638870e0a2f0</text>
<polyline fill="none" stroke="#000000" stroke-width="2.5" points="209,-96.5 400,-96.5 "/>
<text text-anchor="middle" x="253.5" y="-81.3" font-family="Helvetica,sans-Serif" font-size="14.00" fill="#000000">left: 0</text>
<polyline fill="none" stroke="#000000" stroke-width="2.5" points="298,-73.5 298,-96.5 "/>
<text text-anchor="middle" x="349" y="-81.3" font-family="Helvetica,sans-Serif" font-size="14.00" fill="#000000">right: 0</text>
</g>
<!-- node_0x638870e0a2f0&#45;&gt;node_0x638870e0a320 -->
<g id="edge2" class="edge">
<title>node_0x638870e0a2f0&#45;&gt;node_0x638870e0a320</title>
<path fill="none" stroke="black" d="M236.81,-202.37C244.46,-193.12 252.57,-183.31 260.43,-173.8"/>
<polygon fill="black" stroke="black" points="263.28,-175.85 266.95,-165.92 257.88,-171.39 263.28,-175.85"/>
</g>
<!-- nil_0x638870e0a350_L -->
<g id="node4" class="node">
<title>nil_0x638870e0a350_L</title>
<path fill="lightgray" stroke="#000000" stroke-width="2.5" d="M37.5,-0.5C37.5,-0.5 87.5,-0.5 87.5,-0.5 93.5,-0.5 99.5,-6.5 99.5,-12.5 99.5,-12.5 99.5,-24.5 99.5,-24.5 99.5,-30.5 93.5,-36.5 87.5,-36.5 87.5,-36.5 37.5,-36.5 37.5,-36.5 31.5,-36.5 25.5,-30.5 25.5,-24.5 25.5,-24.5 25.5,-12.5 25.5,-12.5 25.5,-6.5 31.5,-0.5 37.5,-0.5"/>
<text text-anchor="middle" x="62.5" y="-14.8" font-family="Helvetica,sans-Serif" font-size="14.00" fill="#000000">nil_node</text>
</g>
<!-- node_0x638870e0a350&#45;&gt;nil_0x638870e0a350_L -->
<g id="edge3" class="edge">
<title>node_0x638870e0a350&#45;&gt;nil_0x638870e0a350_L</title>
<path fill="none" stroke="black" d="M80.45,-73.35C77.35,-64.06 74.19,-54.58 71.4,-46.2"/>
<polygon fill="black" stroke="black" points="74.69,-45.01 68.21,-36.63 68.05,-47.23 74.69,-45.01"/>
</g>
<!-- nil_0x638870e0a350_R -->
<g id="node5" class="node">
<title>nil_0x638870e0a350_R</title>
<path fill="lightgray" stroke="#000000" stroke-width="2.5" d="M129.5,-0.5C129.5,-0.5 179.5,-0.5 179.5,-0.5 185.5,-0.5 191.5,-6.5 191.5,-12.5 191.5,-12.5 191.5,-24.5 191.5,-24.5 191.5,-30.5 185.5,-36.5 179.5,-36.5 179.5,-36.5 129.5,-36.5 129.5,-36.5 123.5,-36.5 117.5,-30.5 117.5,-24.5 117.5,-24.5 117.5,-12.5 117.5,-12.5 117.5,-6.5 123.5,-0.5 129.5,-0.5"/>
<text text-anchor="middle" x="154.5" y="-14.8" font-family="Helvetica,sans-Serif" font-size="14.00" fill="#000000">nil_node</text>
</g>
<!-- node_0x638870e0a350&#45;&gt;nil_0x638870e0a350_R -->
<g id="edge4" class="edge">
<title>node_0x638870e0a350&#45;&gt;nil_0x638870e0a350_R</title>
<path fill="none" stroke="black" d="M122.41,-73.35C128.12,-63.76 133.97,-53.95 139.08,-45.38"/>
<polygon fill="black" stroke="black" points="142.18,-47.01 144.29,-36.63 136.16,-43.43 142.18,-47.01"/>
</g>
<!-- nil_0x638870e0a320_L -->
<g id="node6" class="node">
<title>nil_0x638870e0a320_L</title>
<path fill="lightgray" stroke="#000000" stroke-width="2.5" d="M250.5,-0.5C250.5,-0.5 300.5,-0.5 300.5,-0.5 306.5,-0.5 312.5,-6.5 312.5,-12.5 312.5,-12.5 312.5,-24.5 312.5,-24.5 312.5,-30.5 306.5,-36.5 300.5,-36.5 300.5,-36.5 250.5,-36.5 250.5,-36.5 244.5,-36.5 238.5,-30.5 238.5,-24.5 238.5,-24.5 238.5,-12.5 238.5,-12.5 238.5,-6.5 244.5,-0.5 250.5,-0.5"/>
<text text-anchor="middle" x="275.5" y="-14.8" font-family="Helvetica,sans-Serif" font-size="14.00" fill="#000000">nil_node</text>
</g>
<!-- node_0x638870e0a320&#45;&gt;nil_0x638870e0a320_L -->
<g id="edge5" class="edge">
<title>node_0x638870e0a320&#45;&gt;nil_0x638870e0a320_L</title>
<path fill="none" stroke="black" d="M291.27,-73.35C288.58,-64.17 285.84,-54.79 283.4,-46.48"/>
<polygon fill="black" stroke="black" points="286.69,-45.24 280.52,-36.63 279.97,-47.21 286.69,-45.24"/>
</g>
<!-- nil_0x638870e0a320_R -->
<g id="node7" class="node">
<title>nil_0x638870e0a320_R</title>
<path fill="lightgray" stroke="#000000" stroke-width="2.5" d="M342.5,-0.5C342.5,-0.5 392.5,-0.5 392.5,-0.5 398.5,-0.5 404.5,-6.5 404.5,-12.5 404.5,-12.5 404.5,-24.5 404.5,-24.5 404.5,-30.5 398.5,-36.5 392.5,-36.5 392.5,-36.5 342.5,-36.5 342.5,-36.5 336.5,-36.5 330.5,-30.5 330.5,-24.5 330.5,-24.5 330.5,-12.5 330.5,-12.5 330.5,-6.5 336.5,-0.5 342.5,-0.5"/>
<text text-anchor="middle" x="367.5" y="-14.8" font-family="Helvetica,sans-Serif" font-size="14.00" fill="#000000">nil_node</text>
</g>
<!-- node_0x638870e0a320&#45;&gt;nil_0x638870e0a320_R -->
<g id="edge6" class="edge">
<title>node_0x638870e0a320&#45;&gt;nil_0x638870e0a320_R</title>
<path fill="none" stroke="black" d="M333.23,-73.35C339.4,-63.66 345.71,-53.74 351.2,-45.11"/>
<polygon fill="black" stroke="black" points="354.18,-46.95 356.6,-36.63 348.28,-43.19 354.18,-46.95"/>
</g>
</g>
</svg>
