<?xml version="1.0" encoding="UTF-8" standalone="no"?>
<!DOCTYPE svg PUBLIC "-//W3C//DTD SVG 1.1//EN"
 "http://www.w3.org/Graphics/SVG/1.1/DTD/svg11.dtd">
<!-- Generated by graphviz version 2.43.0 (0)
 -->
<!-- Title: G Pages: 1 -->
<svg width="766pt" height="432pt"
 viewBox="0.00 0.00 766.00 432.00" xmlns="http://www.w3.org/2000/svg" xmlns:xlink="http://www.w3.org/1999/xlink">
<g id="graph0" class="graph" transform="scale(1 1) rotate(0) translate(4 428)">
<title>G</title>
<polygon fill="lemonchiffon" stroke="transparent" points="-4,4 -4,-428 762,-428 762,4 -4,4"/>
<!-- node_0x5bc63d84e770 -->
<g id="node1" class="node">
<title>node_0x5bc63d84e770</title>
<path fill="lightgray" stroke="#000000" stroke-width="2.5" d="M192.5,-331.5C192.5,-331.5 519.5,-331.5 519.5,-331.5 525.5,-331.5 531.5,-337.5 531.5,-343.5 531.5,-343.5 531.5,-411.5 531.5,-411.5 531.5,-417.5 525.5,-423.5 519.5,-423.5 519.5,-423.5 192.5,-423.5 192.5,-423.5 186.5,-423.5 180.5,-417.5 180.5,-411.5 180.5,-411.5 180.5,-343.5 180.5,-343.5 180.5,-337.5 186.5,-331.5 192.5,-331.5"/>
<text text-anchor="middle" x="356" y="-408.3" font-family="Helvetica,sans-Serif" font-size="14.00" fill="#000000">node_0x5bc63d84e770</text>
<polyline fill="none" stroke="#000000" stroke-width="2.5" points="180.5,-400.5 531.5,-400.5 "/>
<text text-anchor="middle" x="356" y="-385.3" font-family="Helvetica,sans-Serif" font-size="14.00" fill="#000000">key: 20</text>
<polyline fill="none" stroke="#000000" stroke-width="2.5" points="180.5,-377.5 531.5,-377.5 "/>
<text text-anchor="middle" x="356" y="-362.3" font-family="Helvetica,sans-Serif" font-size="14.00" fill="#000000">parent: 0x5bc63d84d2f0</text>
<polyline fill="none" stroke="#000000" stroke-width="2.5" points="180.5,-354.5 531.5,-354.5 "/>
<text text-anchor="middle" x="265.5" y="-339.3" font-family="Helvetica,sans-Serif" font-size="14.00" fill="#000000">left: 0x5bc63d84e740</text>
<polyline fill="none" stroke="#000000" stroke-width="2.5" points="350.5,-331.5 350.5,-354.5 "/>
<text text-anchor="middle" x="441" y="-339.3" font-family="Helvetica,sans-Serif" font-size="14.00" fill="#000000">right: 0x5bc63d84e7a0</text>
</g>
<!-- node_0x5bc63d84e740 -->
<g id="node2" class="node">
<title>node_0x5bc63d84e740</title>
<path fill="lightgray" stroke="#000000" stroke-width="2.5" d="M12,-202.5C12,-202.5 334,-202.5 334,-202.5 340,-202.5 346,-208.5 346,-214.5 346,-214.5 346,-282.5 346,-282.5 346,-288.5 340,-294.5 334,-294.5 334,-294.5 12,-294.5 12,-294.5 6,-294.5 0,-288.5 0,-282.5 0,-282.5 0,-214.5 0,-214.5 0,-208.5 6,-202.5 12,-202.5"/>
<text text-anchor="middle" x="173" y="-279.3" font-family="Helvetica,sans-Serif" font-size="14.00" fill="#000000">node_0x5bc63d84e740</text>
<polyline fill="none" stroke="#000000" stroke-width="2.5" points="0,-271.5 346,-271.5 "/>
<text text-anchor="middle" x="173" y="-256.3" font-family="Helvetica,sans-Serif" font-size="14.00" fill="#000000">key: 10</text>
<polyline fill="none" stroke="#000000" stroke-width="2.5" points="0,-248.5 346,-248.5 "/>
<text text-anchor="middle" x="173" y="-233.3" font-family="Helvetica,sans-Serif" font-size="14.00" fill="#000000">parent: 0x5bc63d84e770</text>
<polyline fill="none" stroke="#000000" stroke-width="2.5" points="0,-225.5 346,-225.5 "/>
<text text-anchor="middle" x="83.5" y="-210.3" font-family="Helvetica,sans-Serif" font-size="14.00" fill="#000000">left: 0x5bc63d84d2f0</text>
<polyline fill="none" stroke="#000000" stroke-width="2.5" points="167,-202.5 167,-225.5 "/>
<text text-anchor="middle" x="256.5" y="-210.3" font-family="Helvetica,sans-Serif" font-size="14.00" fill="#000000">right: 0x5bc63d84d2f0</text>
</g>
<!-- node_0x5bc63d84e770&#45;&gt;node_0x5bc63d84e740 -->
<g id="edge1" class="edge">
<title>node_0x5bc63d84e770&#45;&gt;node_0x5bc63d84e740</title>
<path fill="none" stroke="black" d="M290.97,-331.37C276.62,-321.41 261.33,-310.8 246.68,-300.63"/>
<polygon fill="black" stroke="black" points="248.34,-297.53 238.13,-294.7 244.35,-303.28 248.34,-297.53"/>
</g>
<!-- node_0x5bc63d84e7a0 -->
<g id="node3" class="node">
<title>node_0x5bc63d84e7a0</title>
<path fill="lightgray" stroke="#000000" stroke-width="2.5" d="M376.5,-202.5C376.5,-202.5 701.5,-202.5 701.5,-202.5 707.5,-202.5 713.5,-208.5 713.5,-214.5 713.5,-214.5 713.5,-282.5 713.5,-282.5 713.5,-288.5 707.5,-294.5 701.5,-294.5 701.5,-294.5 376.5,-294.5 376.5,-294.5 370.5,-294.5 364.5,-288.5 364.5,-282.5 364.5,-282.5 364.5,-214.5 364.5,-214.5 364.5,-208.5 370.5,-202.5 376.5,-202.5"/>
<text text-anchor="middle" x="539" y="-279.3" font-family="Helvetica,sans-Serif" font-size="14.00" fill="#000000">node_0x5bc63d84e7a0</text>
<polyline fill="none" stroke="#000000" stroke-width="2.5" points="364.5,-271.5 713.5,-271.5 "/>
<text text-anchor="middle" x="539" y="-256.3" font-family="Helvetica,sans-Serif" font-size="14.00" fill="#000000">key: 30</text>
<polyline fill="none" stroke="#000000" stroke-width="2.5" points="364.5,-248.5 713.5,-248.5 "/>
<text text-anchor="middle" x="539" y="-233.3" font-family="Helvetica,sans-Serif" font-size="14.00" fill="#000000">parent: 0x5bc63d84e770</text>
<polyline fill="none" stroke="#000000" stroke-width="2.5" points="364.5,-225.5 713.5,-225.5 "/>
<text text-anchor="middle" x="448" y="-210.3" font-family="Helvetica,sans-Serif" font-size="14.00" fill="#000000">left: 0x5bc63d84d2f0</text>
<polyline fill="none" stroke="#000000" stroke-width="2.5" points="531.5,-202.5 531.5,-225.5 "/>
<text text-anchor="middle" x="622.5" y="-210.3" font-family="Helvetica,sans-Serif" font-size="14.00" fill="#000000">right: 0x5bc63d84e7d0</text>
</g>
<!-- node_0x5bc63d84e770&#45;&gt;node_0x5bc63d84e7a0 -->
<g id="edge2" class="edge">
<title>node_0x5bc63d84e770&#45;&gt;node_0x5bc63d84e7a0</title>
<path fill="none" stroke="black" d="M421.03,-331.37C435.38,-321.41 450.67,-310.8 465.32,-300.63"/>
<polygon fill="black" stroke="black" points="467.65,-303.28 473.87,-294.7 463.66,-297.53 467.65,-303.28"/>
</g>
<!-- nil_0x5bc63d84e740_L -->
<g id="node5" class="node">
<title>nil_0x5bc63d84e740_L</title>
<path fill="lightgray" stroke="#000000" stroke-width="2.5" d="M102,-101.5C102,-101.5 152,-101.5 152,-101.5 158,-101.5 164,-107.5 164,-113.5 164,-113.5 164,-125.5 164,-125.5 164,-131.5 158,-137.5 152,-137.5 152,-137.5 102,-137.5 102,-137.5 96,-137.5 90,-131.5 90,-125.5 90,-125.5 90,-113.5 90,-113.5 90,-107.5 96,-101.5 102,-101.5"/>
<text text-anchor="middle" x="127" y="-115.8" font-family="Helvetica,sans-Serif" font-size="14.00" fill="#000000">nil_node</text>
</g>
<!-- node_0x5bc63d84e740&#45;&gt;nil_0x5bc63d84e740_L -->
<g id="edge3" class="edge">
<title>node_0x5bc63d84e740&#45;&gt;nil_0x5bc63d84e740_L</title>
<path fill="none" stroke="black" d="M156.65,-202.37C150,-184 142.54,-163.4 136.76,-147.45"/>
<polygon fill="black" stroke="black" points="139.93,-145.93 133.24,-137.72 133.35,-148.31 139.93,-145.93"/>
</g>
<!-- nil_0x5bc63d84e740_R -->
<g id="node6" class="node">
<title>nil_0x5bc63d84e740_R</title>
<path fill="lightgray" stroke="#000000" stroke-width="2.5" d="M194,-101.5C194,-101.5 244,-101.5 244,-101.5 250,-101.5 256,-107.5 256,-113.5 256,-113.5 256,-125.5 256,-125.5 256,-131.5 250,-137.5 244,-137.5 244,-137.5 194,-137.5 194,-137.5 188,-137.5 182,-131.5 182,-125.5 182,-125.5 182,-113.5 182,-113.5 182,-107.5 188,-101.5 194,-101.5"/>
<text text-anchor="middle" x="219" y="-115.8" font-family="Helvetica,sans-Serif" font-size="14.00" fill="#000000">nil_node</text>
</g>
<!-- node_0x5bc63d84e740&#45;&gt;nil_0x5bc63d84e740_R -->
<g id="edge4" class="edge">
<title>node_0x5bc63d84e740&#45;&gt;nil_0x5bc63d84e740_R</title>
<path fill="none" stroke="black" d="M189.35,-202.37C196,-184 203.46,-163.4 209.24,-147.45"/>
<polygon fill="black" stroke="black" points="212.65,-148.31 212.76,-137.72 206.07,-145.93 212.65,-148.31"/>
</g>
<!-- node_0x5bc63d84e7d0 -->
<g id="node4" class="node">
<title>node_0x5bc63d84e7d0</title>
<path fill="salmon" stroke="#000000" stroke-width="2.5" d="M332,-73.5C332,-73.5 654,-73.5 654,-73.5 660,-73.5 666,-79.5 666,-85.5 666,-85.5 666,-153.5 666,-153.5 666,-159.5 660,-165.5 654,-165.5 654,-165.5 332,-165.5 332,-165.5 326,-165.5 320,-159.5 320,-153.5 320,-153.5 320,-85.5 320,-85.5 320,-79.5 326,-73.5 332,-73.5"/>
<text text-anchor="middle" x="493" y="-150.3" font-family="Helvetica,sans-Serif" font-size="14.00" fill="#000000">node_0x5bc63d84e7d0</text>
<polyline fill="none" stroke="#000000" stroke-width="2.5" points="320,-142.5 666,-142.5 "/>
<text text-anchor="middle" x="493" y="-127.3" font-family="Helvetica,sans-Serif" font-size="14.00" fill="#000000">key: 40</text>
<polyline fill="none" stroke="#000000" stroke-width="2.5" points="320,-119.5 666,-119.5 "/>
<text text-anchor="middle" x="493" y="-104.3" font-family="Helvetica,sans-Serif" font-size="14.00" fill="#000000">parent: 0x5bc63d84e7a0</text>
<polyline fill="none" stroke="#000000" stroke-width="2.5" points="320,-96.5 666,-96.5 "/>
<text text-anchor="middle" x="403.5" y="-81.3" font-family="Helvetica,sans-Serif" font-size="14.00" fill="#000000">left: 0x5bc63d84d2f0</text>
<polyline fill="none" stroke="#000000" stroke-width="2.5" points="487,-73.5 487,-96.5 "/>
<text text-anchor="middle" x="576.5" y="-81.3" font-family="Helvetica,sans-Serif" font-size="14.00" fill="#000000">right: 0x5bc63d84d2f0</text>
</g>
<!-- node_0x5bc63d84e7a0&#45;&gt;node_0x5bc63d84e7d0 -->
<g id="edge6" class="edge">
<title>node_0x5bc63d84e7a0&#45;&gt;node_0x5bc63d84e7d0</title>
<path fill="none" stroke="black" d="M522.65,-202.37C519.5,-193.68 516.17,-184.48 512.93,-175.52"/>
<polygon fill="black" stroke="black" points="516.15,-174.13 509.45,-165.92 509.56,-176.51 516.15,-174.13"/>
</g>
<!-- nil_0x5bc63d84e7a0_L -->
<g id="node7" class="node">
<title>nil_0x5bc63d84e7a0_L</title>
<path fill="lightgray" stroke="#000000" stroke-width="2.5" d="M696,-101.5C696,-101.5 746,-101.5 746,-101.5 752,-101.5 758,-107.5 758,-113.5 758,-113.5 758,-125.5 758,-125.5 758,-131.5 752,-137.5 746,-137.5 746,-137.5 696,-137.5 696,-137.5 690,-137.5 684,-131.5 684,-125.5 684,-125.5 684,-113.5 684,-113.5 684,-107.5 690,-101.5 696,-101.5"/>
<text text-anchor="middle" x="721" y="-115.8" font-family="Helvetica,sans-Serif" font-size="14.00" fill="#000000">nil_node</text>
</g>
<!-- node_0x5bc63d84e7a0&#45;&gt;nil_0x5bc63d84e7a0_L -->
<g id="edge5" class="edge">
<title>node_0x5bc63d84e7a0&#45;&gt;nil_0x5bc63d84e7a0_L</title>
<path fill="none" stroke="black" d="M621.64,-202.31C639.77,-191.22 658.47,-178.82 675,-166 683.08,-159.73 691.23,-152.16 698.38,-145.02"/>
<polygon fill="black" stroke="black" points="701.23,-147.11 705.7,-137.51 696.21,-142.23 701.23,-147.11"/>
</g>
<!-- nil_0x5bc63d84e7d0_L -->
<g id="node8" class="node">
<title>nil_0x5bc63d84e7d0_L</title>
<path fill="lightgray" stroke="#000000" stroke-width="2.5" d="M422,-0.5C422,-0.5 472,-0.5 472,-0.5 478,-0.5 484,-6.5 484,-12.5 484,-12.5 484,-24.5 484,-24.5 484,-30.5 478,-36.5 472,-36.5 472,-36.5 422,-36.5 422,-36.5 416,-36.5 410,-30.5 410,-24.5 410,-24.5 410,-12.5 410,-12.5 410,-6.5 416,-0.5 422,-0.5"/>
<text text-anchor="middle" x="447" y="-14.8" font-family="Helvetica,sans-Serif" font-size="14.00" fill="#000000">nil_node</text>
</g>
<!-- node_0x5bc63d84e7d0&#45;&gt;nil_0x5bc63d84e7d0_L -->
<g id="edge7" class="edge">
<title>node_0x5bc63d84e7d0&#45;&gt;nil_0x5bc63d84e7d0_L</title>
<path fill="none" stroke="black" d="M472.02,-73.35C467.66,-63.96 463.2,-54.37 459.28,-45.93"/>
<polygon fill="black" stroke="black" points="462.35,-44.23 454.96,-36.63 456,-47.18 462.35,-44.23"/>
</g>
<!-- nil_0x5bc63d84e7d0_R -->
<g id="node9" class="node">
<title>nil_0x5bc63d84e7d0_R</title>
<path fill="lightgray" stroke="#000000" stroke-width="2.5" d="M514,-0.5C514,-0.5 564,-0.5 564,-0.5 570,-0.5 576,-6.5 576,-12.5 576,-12.5 576,-24.5 576,-24.5 576,-30.5 570,-36.5 564,-36.5 564,-36.5 514,-36.5 514,-36.5 508,-36.5 502,-30.5 502,-24.5 502,-24.5 502,-12.5 502,-12.5 502,-6.5 508,-0.5 514,-0.5"/>
<text text-anchor="middle" x="539" y="-14.8" font-family="Helvetica,sans-Serif" font-size="14.00" fill="#000000">nil_node</text>
</g>
<!-- node_0x5bc63d84e7d0&#45;&gt;nil_0x5bc63d84e7d0_R -->
<g id="edge8" class="edge">
<title>node_0x5bc63d84e7d0&#45;&gt;nil_0x5bc63d84e7d0_R</title>
<path fill="none" stroke="black" d="M513.98,-73.35C518.34,-63.96 522.8,-54.37 526.72,-45.93"/>
<polygon fill="black" stroke="black" points="530,-47.18 531.04,-36.63 523.65,-44.23 530,-47.18"/>
</g>
</g>
</svg>
