<?xml version="1.0" encoding="UTF-8" standalone="no"?>
<!DOCTYPE svg PUBLIC "-//W3C//DTD SVG 1.1//EN"
 "http://www.w3.org/Graphics/SVG/1.1/DTD/svg11.dtd">
<!-- Generated by graphviz version 2.43.0 (0)
 -->
<!-- Title: G Pages: 1 -->
<svg width="408pt" height="303pt"
 viewBox="0.00 0.00 408.00 303.00" xmlns="http://www.w3.org/2000/svg" xmlns:xlink="http://www.w3.org/1999/xlink">
<g id="graph0" class="graph" transform="scale(1 1) rotate(0) translate(4 299)">
<title>G</title>
<polygon fill="lemonchiffon" stroke="transparent" points="-4,4 -4,-299 404,-299 404,4 -4,4"/>
<!-- node_0x560f93610ef0 -->
<g id="node1" class="node">
<title>node_0x560f93610ef0</title>
<path fill="lightgray" stroke="#000000" stroke-width="2.5" d="M38.5,-202.5C38.5,-202.5 355.5,-202.5 355.5,-202.5 361.5,-202.5 367.5,-208.5 367.5,-214.5 367.5,-214.5 367.5,-282.5 367.5,-282.5 367.5,-288.5 361.5,-294.5 355.5,-294.5 355.5,-294.5 38.5,-294.5 38.5,-294.5 32.5,-294.5 26.5,-288.5 26.5,-282.5 26.5,-282.5 26.5,-214.5 26.5,-214.5 26.5,-208.5 32.5,-202.5 38.5,-202.5"/>
<text text-anchor="middle" x="197" y="-279.3" font-family="Helvetica,sans-Serif" font-size="14.00" fill="#000000">node_0x560f93610ef0</text>
<polyline fill="none" stroke="#000000" stroke-width="2.5" points="26.5,-271.5 367.5,-271.5 "/>
<text text-anchor="middle" x="197" y="-256.3" font-family="Helvetica,sans-Serif" font-size="14.00" fill="#000000">key: 10</text>
<polyline fill="none" stroke="#000000" stroke-width="2.5" points="26.5,-248.5 367.5,-248.5 "/>
<text text-anchor="middle" x="197" y="-233.3" font-family="Helvetica,sans-Serif" font-size="14.00" fill="#000000">parent: 0</text>
<polyline fill="none" stroke="#000000" stroke-width="2.5" points="26.5,-225.5 367.5,-225.5 "/>
<text text-anchor="middle" x="109" y="-210.3" font-family="Helvetica,sans-Serif" font-size="14.00" fill="#000000">left: 0x560f93610f20</text>
<polyline fill="none" stroke="#000000" stroke-width="2.5" points="191.5,-202.5 191.5,-225.5 "/>
<text text-anchor="middle" x="279.5" y="-210.3" font-family="Helvetica,sans-Serif" font-size="14.00" fill="#000000">right: 0x560f93610f50</text>
</g>
<!-- node_0x560f93610f20 -->
<g id="node2" class="node">
<title>node_0x560f93610f20</title>
<path fill="lightgray" stroke="#000000" stroke-width="2.5" d="M12,-73.5C12,-73.5 176,-73.5 176,-73.5 182,-73.5 188,-79.5 188,-85.5 188,-85.5 188,-153.5 188,-153.5 188,-159.5 182,-165.5 176,-165.5 176,-165.5 12,-165.5 12,-165.5 6,-165.5 0,-159.5 0,-153.5 0,-153.5 0,-85.5 0,-85.5 0,-79.5 6,-73.5 12,-73.5"/>
<text text-anchor="middle" x="94" y="-150.3" font-family="Helvetica,sans-Serif" font-size="14.00" fill="#000000">node_0x560f93610f20</text>
<polyline fill="none" stroke="#000000" stroke-width="2.5" points="0,-142.5 188,-142.5 "/>
<text text-anchor="middle" x="94" y="-127.3" font-family="Helvetica,sans-Serif" font-size="14.00" fill="#000000">key: 5</text>
<polyline fill="none" stroke="#000000" stroke-width="2.5" points="0,-119.5 188,-119.5 "/>
<text text-anchor="middle" x="94" y="-104.3" font-family="Helvetica,sans-Serif" font-size="14.00" fill="#000000">parent: 0x560f93610ef0</text>
<polyline fill="none" stroke="#000000" stroke-width="2.5" points="0,-96.5 188,-96.5 "/>
<text text-anchor="middle" x="44" y="-81.3" font-family="Helvetica,sans-Serif" font-size="14.00" fill="#000000">left: 0</text>
<polyline fill="none" stroke="#000000" stroke-width="2.5" points="88,-73.5 88,-96.5 "/>
<text text-anchor="middle" x="138" y="-81.3" font-family="Helvetica,sans-Serif" font-size="14.00" fill="#000000">right: 0</text>
</g>
<!-- node_0x560f93610ef0&#45;&gt;node_0x560f93610f20 -->
<g id="edge1" class="edge">
<title>node_0x560f93610ef0&#45;&gt;node_0x560f93610f20</title>
<path fill="none" stroke="black" d="M160.4,-202.37C152.9,-193.12 144.94,-183.31 137.23,-173.8"/>
<polygon fill="black" stroke="black" points="139.85,-171.48 130.83,-165.92 134.41,-175.89 139.85,-171.48"/>
</g>
<!-- node_0x560f93610f50 -->
<g id="node3" class="node">
<title>node_0x560f93610f50</title>
<path fill="salmon" stroke="#000000" stroke-width="2.5" d="M218,-73.5C218,-73.5 382,-73.5 382,-73.5 388,-73.5 394,-79.5 394,-85.5 394,-85.5 394,-153.5 394,-153.5 394,-159.5 388,-165.5 382,-165.5 382,-165.5 218,-165.5 218,-165.5 212,-165.5 206,-159.5 206,-153.5 206,-153.5 206,-85.5 206,-85.5 206,-79.5 212,-73.5 218,-73.5"/>
<text text-anchor="middle" x="300" y="-150.3" font-family="Helvetica,sans-Serif" font-size="14.00" fill="#000000">node_0x560f93610f50</text>
<polyline fill="none" stroke="#000000" stroke-width="2.5" points="206,-142.5 394,-142.5 "/>
<text text-anchor="middle" x="300" y="-127.3" font-family="Helvetica,sans-Serif" font-size="14.00" fill="#000000">key: 15</text>
<polyline fill="none" stroke="#000000" stroke-width="2.5" points="206,-119.5 394,-119.5 "/>
<text text-anchor="middle" x="300" y="-104.3" font-family="Helvetica,sans-Serif" font-size="14.00" fill="#000000">parent: 0x560f93610ef0</text>
<polyline fill="none" stroke="#000000" stroke-width="2.5" points="206,-96.5 394,-96.5 "/>
<text text-anchor="middle" x="250" y="-81.3" font-family="Helvetica,sans-Serif" font-size="14.00" fill="#000000">left: 0</text>
<polyline fill="none" stroke="#000000" stroke-width="2.5" points="294,-73.5 294,-96.5 "/>
<text text-anchor="middle" x="344" y="-81.3" font-family="Helvetica,sans-Serif" font-size="14.00" fill="#000000">right: 0</text>
</g>
<!-- node_0x560f93610ef0&#45;&gt;node_0x560f93610f50 -->
<g id="edge2" class="edge">
<title>node_0x560f93610ef0&#45;&gt;node_0x560f93610f50</title>
<path fill="none" stroke="black" d="M233.6,-202.37C241.1,-193.12 249.06,-183.31 256.77,-173.8"/>
<polygon fill="black" stroke="black" points="259.59,-175.89 263.17,-165.92 254.15,-171.48 259.59,-175.89"/>
</g>
<!-- nil_0x560f93610f20_L -->
<g id="node4" class="node">
<title>nil_0x560f93610f20_L</title>
<path fill="lightgray" stroke="#000000" stroke-width="2.5" d="M34,-0.5C34,-0.5 84,-0.5 84,-0.5 90,-0.5 96,-6.5 96,-12.5 96,-12.5 96,-24.5 96,-24.5 96,-30.5 90,-36.5 84,-36.5 84,-36.5 34,-36.5 34,-36.5 28,-36.5 22,-30.5 22,-24.5 22,-24.5 22,-12.5 22,-12.5 22,-6.5 28,-0.5 34,-0.5"/>
<text text-anchor="middle" x="59" y="-14.8" font-family="Helvetica,sans-Serif" font-size="14.00" fill="#000000">nil_node</text>
</g>
<!-- node_0x560f93610f20&#45;&gt;nil_0x560f93610f20_L -->
<g id="edge3" class="edge">
<title>node_0x560f93610f20&#45;&gt;nil_0x560f93610f20_L</title>
<path fill="none" stroke="black" d="M78.04,-73.35C74.76,-64.06 71.4,-54.58 68.44,-46.2"/>
<polygon fill="black" stroke="black" points="71.69,-44.89 65.06,-36.63 65.09,-47.23 71.69,-44.89"/>
</g>
<!-- nil_0x560f93610f20_R -->
<g id="node5" class="node">
<title>nil_0x560f93610f20_R</title>
<path fill="lightgray" stroke="#000000" stroke-width="2.5" d="M126,-0.5C126,-0.5 176,-0.5 176,-0.5 182,-0.5 188,-6.5 188,-12.5 188,-12.5 188,-24.5 188,-24.5 188,-30.5 182,-36.5 176,-36.5 176,-36.5 126,-36.5 126,-36.5 120,-36.5 114,-30.5 114,-24.5 114,-24.5 114,-12.5 114,-12.5 114,-6.5 120,-0.5 126,-0.5"/>
<text text-anchor="middle" x="151" y="-14.8" font-family="Helvetica,sans-Serif" font-size="14.00" fill="#000000">nil_node</text>
</g>
<!-- node_0x560f93610f20&#45;&gt;nil_0x560f93610f20_R -->
<g id="edge4" class="edge">
<title>node_0x560f93610f20&#45;&gt;nil_0x560f93610f20_R</title>
<path fill="none" stroke="black" d="M120,-73.35C125.52,-63.76 131.16,-53.95 136.1,-45.38"/>
<polygon fill="black" stroke="black" points="139.18,-47.04 141.14,-36.63 133.11,-43.55 139.18,-47.04"/>
</g>
<!-- nil_0x560f93610f50_L -->
<g id="node6" class="node">
<title>nil_0x560f93610f50_L</title>
<path fill="lightgray" stroke="#000000" stroke-width="2.5" d="M246,-0.5C246,-0.5 296,-0.5 296,-0.5 302,-0.5 308,-6.5 308,-12.5 308,-12.5 308,-24.5 308,-24.5 308,-30.5 302,-36.5 296,-36.5 296,-36.5 246,-36.5 246,-36.5 240,-36.5 234,-30.5 234,-24.5 234,-24.5 234,-12.5 234,-12.5 234,-6.5 240,-0.5 246,-0.5"/>
<text text-anchor="middle" x="271" y="-14.8" font-family="Helvetica,sans-Serif" font-size="14.00" fill="#000000">nil_node</text>
</g>
<!-- node_0x560f93610f50&#45;&gt;nil_0x560f93610f50_L -->
<g id="edge5" class="edge">
<title>node_0x560f93610f50&#45;&gt;nil_0x560f93610f50_L</title>
<path fill="none" stroke="black" d="M286.77,-73.35C284.08,-64.17 281.34,-54.79 278.9,-46.48"/>
<polygon fill="black" stroke="black" points="282.19,-45.24 276.02,-36.63 275.47,-47.21 282.19,-45.24"/>
</g>
<!-- nil_0x560f93610f50_R -->
<g id="node7" class="node">
<title>nil_0x560f93610f50_R</title>
<path fill="lightgray" stroke="#000000" stroke-width="2.5" d="M338,-0.5C338,-0.5 388,-0.5 388,-0.5 394,-0.5 400,-6.5 400,-12.5 400,-12.5 400,-24.5 400,-24.5 400,-30.5 394,-36.5 388,-36.5 388,-36.5 338,-36.5 338,-36.5 332,-36.5 326,-30.5 326,-24.5 326,-24.5 326,-12.5 326,-12.5 326,-6.5 332,-0.5 338,-0.5"/>
<text text-anchor="middle" x="363" y="-14.8" font-family="Helvetica,sans-Serif" font-size="14.00" fill="#000000">nil_node</text>
</g>
<!-- node_0x560f93610f50&#45;&gt;nil_0x560f93610f50_R -->
<g id="edge6" class="edge">
<title>node_0x560f93610f50&#45;&gt;nil_0x560f93610f50_R</title>
<path fill="none" stroke="black" d="M328.73,-73.35C334.9,-63.66 341.21,-53.74 346.7,-45.11"/>
<polygon fill="black" stroke="black" points="349.68,-46.95 352.1,-36.63 343.78,-43.19 349.68,-46.95"/>
</g>
</g>
</svg>
