<?xml version="1.0" encoding="UTF-8" standalone="no"?>
<!DOCTYPE svg PUBLIC "-//W3C//DTD SVG 1.1//EN"
 "http://www.w3.org/Graphics/SVG/1.1/DTD/svg11.dtd">
<!-- Generated by graphviz version 2.43.0 (0)
 -->
<!-- Title: G Pages: 1 -->
<svg width="410pt" height="303pt"
 viewBox="0.00 0.00 409.50 303.00" xmlns="http://www.w3.org/2000/svg" xmlns:xlink="http://www.w3.org/1999/xlink">
<g id="graph0" class="graph" transform="scale(1 1) rotate(0) translate(4 299)">
<title>G</title>
<polygon fill="lemonchiffon" stroke="transparent" points="-4,4 -4,-299 405.5,-299 405.5,4 -4,4"/>
<!-- node_0x563eac790f20 -->
<g id="node1" class="node">
<title>node_0x563eac790f20</title>
<path fill="lightgray" stroke="#000000" stroke-width="2.5" d="M38,-202.5C38,-202.5 357,-202.5 357,-202.5 363,-202.5 369,-208.5 369,-214.5 369,-214.5 369,-282.5 369,-282.5 369,-288.5 363,-294.5 357,-294.5 357,-294.5 38,-294.5 38,-294.5 32,-294.5 26,-288.5 26,-282.5 26,-282.5 26,-214.5 26,-214.5 26,-208.5 32,-202.5 38,-202.5"/>
<text text-anchor="middle" x="197.5" y="-279.3" font-family="Helvetica,sans-Serif" font-size="14.00" fill="#000000">node_0x563eac790f20</text>
<polyline fill="none" stroke="#000000" stroke-width="2.5" points="26,-271.5 369,-271.5 "/>
<text text-anchor="middle" x="197.5" y="-256.3" font-family="Helvetica,sans-Serif" font-size="14.00" fill="#000000">key: 10</text>
<polyline fill="none" stroke="#000000" stroke-width="2.5" points="26,-248.5 369,-248.5 "/>
<text text-anchor="middle" x="197.5" y="-233.3" font-family="Helvetica,sans-Serif" font-size="14.00" fill="#000000">parent: 0</text>
<polyline fill="none" stroke="#000000" stroke-width="2.5" points="26,-225.5 369,-225.5 "/>
<text text-anchor="middle" x="109" y="-210.3" font-family="Helvetica,sans-Serif" font-size="14.00" fill="#000000">left: 0x563eac790f50</text>
<polyline fill="none" stroke="#000000" stroke-width="2.5" points="192,-202.5 192,-225.5 "/>
<text text-anchor="middle" x="280.5" y="-210.3" font-family="Helvetica,sans-Serif" font-size="14.00" fill="#000000">right: 0x563eac790f80</text>
</g>
<!-- node_0x563eac790f50 -->
<g id="node2" class="node">
<title>node_0x563eac790f50</title>
<path fill="lightgray" stroke="#000000" stroke-width="2.5" d="M12,-73.5C12,-73.5 177,-73.5 177,-73.5 183,-73.5 189,-79.5 189,-85.5 189,-85.5 189,-153.5 189,-153.5 189,-159.5 183,-165.5 177,-165.5 177,-165.5 12,-165.5 12,-165.5 6,-165.5 0,-159.5 0,-153.5 0,-153.5 0,-85.5 0,-85.5 0,-79.5 6,-73.5 12,-73.5"/>
<text text-anchor="middle" x="94.5" y="-150.3" font-family="Helvetica,sans-Serif" font-size="14.00" fill="#000000">node_0x563eac790f50</text>
<polyline fill="none" stroke="#000000" stroke-width="2.5" points="0,-142.5 189,-142.5 "/>
<text text-anchor="middle" x="94.5" y="-127.3" font-family="Helvetica,sans-Serif" font-size="14.00" fill="#000000">key: 5</text>
<polyline fill="none" stroke="#000000" stroke-width="2.5" points="0,-119.5 189,-119.5 "/>
<text text-anchor="middle" x="94.5" y="-104.3" font-family="Helvetica,sans-Serif" font-size="14.00" fill="#000000">parent: 0x563eac790f20</text>
<polyline fill="none" stroke="#000000" stroke-width="2.5" points="0,-96.5 189,-96.5 "/>
<text text-anchor="middle" x="44" y="-81.3" font-family="Helvetica,sans-Serif" font-size="14.00" fill="#000000">left: 0</text>
<polyline fill="none" stroke="#000000" stroke-width="2.5" points="88,-73.5 88,-96.5 "/>
<text text-anchor="middle" x="138.5" y="-81.3" font-family="Helvetica,sans-Serif" font-size="14.00" fill="#000000">right: 0</text>
</g>
<!-- node_0x563eac790f20&#45;&gt;node_0x563eac790f50 -->
<g id="edge1" class="edge">
<title>node_0x563eac790f20&#45;&gt;node_0x563eac790f50</title>
<path fill="none" stroke="black" d="M160.9,-202.37C153.4,-193.12 145.44,-183.31 137.73,-173.8"/>
<polygon fill="black" stroke="black" points="140.35,-171.48 131.33,-165.92 134.91,-175.89 140.35,-171.48"/>
</g>
<!-- node_0x563eac790f80 -->
<g id="node3" class="node">
<title>node_0x563eac790f80</title>
<path fill="salmon" stroke="#000000" stroke-width="2.5" d="M219,-73.5C219,-73.5 384,-73.5 384,-73.5 390,-73.5 396,-79.5 396,-85.5 396,-85.5 396,-153.5 396,-153.5 396,-159.5 390,-165.5 384,-165.5 384,-165.5 219,-165.5 219,-165.5 213,-165.5 207,-159.5 207,-153.5 207,-153.5 207,-85.5 207,-85.5 207,-79.5 213,-73.5 219,-73.5"/>
<text text-anchor="middle" x="301.5" y="-150.3" font-family="Helvetica,sans-Serif" font-size="14.00" fill="#000000">node_0x563eac790f80</text>
<polyline fill="none" stroke="#000000" stroke-width="2.5" points="207,-142.5 396,-142.5 "/>
<text text-anchor="middle" x="301.5" y="-127.3" font-family="Helvetica,sans-Serif" font-size="14.00" fill="#000000">key: 15</text>
<polyline fill="none" stroke="#000000" stroke-width="2.5" points="207,-119.5 396,-119.5 "/>
<text text-anchor="middle" x="301.5" y="-104.3" font-family="Helvetica,sans-Serif" font-size="14.00" fill="#000000">parent: 0x563eac790f20</text>
<polyline fill="none" stroke="#000000" stroke-width="2.5" points="207,-96.5 396,-96.5 "/>
<text text-anchor="middle" x="251" y="-81.3" font-family="Helvetica,sans-Serif" font-size="14.00" fill="#000000">left: 0</text>
<polyline fill="none" stroke="#000000" stroke-width="2.5" points="295,-73.5 295,-96.5 "/>
<text text-anchor="middle" x="345.5" y="-81.3" font-family="Helvetica,sans-Serif" font-size="14.00" fill="#000000">right: 0</text>
</g>
<!-- node_0x563eac790f20&#45;&gt;node_0x563eac790f80 -->
<g id="edge2" class="edge">
<title>node_0x563eac790f20&#45;&gt;node_0x563eac790f80</title>
<path fill="none" stroke="black" d="M234.46,-202.37C242.03,-193.12 250.07,-183.31 257.85,-173.8"/>
<polygon fill="black" stroke="black" points="260.68,-175.87 264.31,-165.92 255.27,-171.43 260.68,-175.87"/>
</g>
<!-- nil_0x563eac790f50_L -->
<g id="node4" class="node">
<title>nil_0x563eac790f50_L</title>
<path fill="lightgray" stroke="#000000" stroke-width="2.5" d="M35.5,-0.5C35.5,-0.5 85.5,-0.5 85.5,-0.5 91.5,-0.5 97.5,-6.5 97.5,-12.5 97.5,-12.5 97.5,-24.5 97.5,-24.5 97.5,-30.5 91.5,-36.5 85.5,-36.5 85.5,-36.5 35.5,-36.5 35.5,-36.5 29.5,-36.5 23.5,-30.5 23.5,-24.5 23.5,-24.5 23.5,-12.5 23.5,-12.5 23.5,-6.5 29.5,-0.5 35.5,-0.5"/>
<text text-anchor="middle" x="60.5" y="-14.8" font-family="Helvetica,sans-Serif" font-size="14.00" fill="#000000">nil_node</text>
</g>
<!-- node_0x563eac790f50&#45;&gt;nil_0x563eac790f50_L -->
<g id="edge3" class="edge">
<title>node_0x563eac790f50&#45;&gt;nil_0x563eac790f50_L</title>
<path fill="none" stroke="black" d="M78.99,-73.35C75.8,-64.06 72.55,-54.58 69.67,-46.2"/>
<polygon fill="black" stroke="black" points="72.94,-44.95 66.38,-36.63 66.32,-47.23 72.94,-44.95"/>
</g>
<!-- nil_0x563eac790f50_R -->
<g id="node5" class="node">
<title>nil_0x563eac790f50_R</title>
<path fill="lightgray" stroke="#000000" stroke-width="2.5" d="M127.5,-0.5C127.5,-0.5 177.5,-0.5 177.5,-0.5 183.5,-0.5 189.5,-6.5 189.5,-12.5 189.5,-12.5 189.5,-24.5 189.5,-24.5 189.5,-30.5 183.5,-36.5 177.5,-36.5 177.5,-36.5 127.5,-36.5 127.5,-36.5 121.5,-36.5 115.5,-30.5 115.5,-24.5 115.5,-24.5 115.5,-12.5 115.5,-12.5 115.5,-6.5 121.5,-0.5 127.5,-0.5"/>
<text text-anchor="middle" x="152.5" y="-14.8" font-family="Helvetica,sans-Serif" font-size="14.00" fill="#000000">nil_node</text>
</g>
<!-- node_0x563eac790f50&#45;&gt;nil_0x563eac790f50_R -->
<g id="edge4" class="edge">
<title>node_0x563eac790f50&#45;&gt;nil_0x563eac790f50_R</title>
<path fill="none" stroke="black" d="M120.95,-73.35C126.57,-63.76 132.32,-53.95 137.34,-45.38"/>
<polygon fill="black" stroke="black" points="140.43,-47.03 142.46,-36.63 134.39,-43.49 140.43,-47.03"/>
</g>
<!-- nil_0x563eac790f80_L -->
<g id="node6" class="node">
<title>nil_0x563eac790f80_L</title>
<path fill="lightgray" stroke="#000000" stroke-width="2.5" d="M247.5,-0.5C247.5,-0.5 297.5,-0.5 297.5,-0.5 303.5,-0.5 309.5,-6.5 309.5,-12.5 309.5,-12.5 309.5,-24.5 309.5,-24.5 309.5,-30.5 303.5,-36.5 297.5,-36.5 297.5,-36.5 247.5,-36.5 247.5,-36.5 241.5,-36.5 235.5,-30.5 235.5,-24.5 235.5,-24.5 235.5,-12.5 235.5,-12.5 235.5,-6.5 241.5,-0.5 247.5,-0.5"/>
<text text-anchor="middle" x="272.5" y="-14.8" font-family="Helvetica,sans-Serif" font-size="14.00" fill="#000000">nil_node</text>
</g>
<!-- node_0x563eac790f80&#45;&gt;nil_0x563eac790f80_L -->
<g id="edge5" class="edge">
<title>node_0x563eac790f80&#45;&gt;nil_0x563eac790f80_L</title>
<path fill="none" stroke="black" d="M288.27,-73.35C285.58,-64.17 282.84,-54.79 280.4,-46.48"/>
<polygon fill="black" stroke="black" points="283.69,-45.24 277.52,-36.63 276.97,-47.21 283.69,-45.24"/>
</g>
<!-- nil_0x563eac790f80_R -->
<g id="node7" class="node">
<title>nil_0x563eac790f80_R</title>
<path fill="lightgray" stroke="#000000" stroke-width="2.5" d="M339.5,-0.5C339.5,-0.5 389.5,-0.5 389.5,-0.5 395.5,-0.5 401.5,-6.5 401.5,-12.5 401.5,-12.5 401.5,-24.5 401.5,-24.5 401.5,-30.5 395.5,-36.5 389.5,-36.5 389.5,-36.5 339.5,-36.5 339.5,-36.5 333.5,-36.5 327.5,-30.5 327.5,-24.5 327.5,-24.5 327.5,-12.5 327.5,-12.5 327.5,-6.5 333.5,-0.5 339.5,-0.5"/>
<text text-anchor="middle" x="364.5" y="-14.8" font-family="Helvetica,sans-Serif" font-size="14.00" fill="#000000">nil_node</text>
</g>
<!-- node_0x563eac790f80&#45;&gt;nil_0x563eac790f80_R -->
<g id="edge6" class="edge">
<title>node_0x563eac790f80&#45;&gt;nil_0x563eac790f80_R</title>
<path fill="none" stroke="black" d="M330.23,-73.35C336.4,-63.66 342.71,-53.74 348.2,-45.11"/>
<polygon fill="black" stroke="black" points="351.18,-46.95 353.6,-36.63 345.28,-43.19 351.18,-46.95"/>
</g>
</g>
</svg>
