<?xml version="1.0" encoding="UTF-8" standalone="no"?>
<!DOCTYPE svg PUBLIC "-//W3C//DTD SVG 1.1//EN"
 "http://www.w3.org/Graphics/SVG/1.1/DTD/svg11.dtd">
<!-- Generated by graphviz version 2.43.0 (0)
 -->
<!-- Title: G Pages: 1 -->
<svg width="1891pt" height="561pt"
 viewBox="0.00 0.00 1891.00 561.00" xmlns="http://www.w3.org/2000/svg" xmlns:xlink="http://www.w3.org/1999/xlink">
<g id="graph0" class="graph" transform="scale(1 1) rotate(0) translate(4 557)">
<title>G</title>
<polygon fill="lemonchiffon" stroke="transparent" points="-4,4 -4,-557 1887,-557 1887,4 -4,4"/>
<!-- node_0x5eed15be83e0 -->
<g id="node1" class="node">
<title>node_0x5eed15be83e0</title>
<path fill="lightgray" stroke="#000000" stroke-width="2.5" d="M669.5,-460.5C669.5,-460.5 997.5,-460.5 997.5,-460.5 1003.5,-460.5 1009.5,-466.5 1009.5,-472.5 1009.5,-472.5 1009.5,-540.5 1009.5,-540.5 1009.5,-546.5 1003.5,-552.5 997.5,-552.5 997.5,-552.5 669.5,-552.5 669.5,-552.5 663.5,-552.5 657.5,-546.5 657.5,-540.5 657.5,-540.5 657.5,-472.5 657.5,-472.5 657.5,-466.5 663.5,-460.5 669.5,-460.5"/>
<text text-anchor="middle" x="833.5" y="-537.3" font-family="Helvetica,sans-Serif" font-size="14.00" fill="#000000">node_0x5eed15be83e0</text>
<polyline fill="none" stroke="#000000" stroke-width="2.5" points="657.5,-529.5 1009.5,-529.5 "/>
<text text-anchor="middle" x="833.5" y="-514.3" font-family="Helvetica,sans-Serif" font-size="14.00" fill="#000000">key: 31</text>
<polyline fill="none" stroke="#000000" stroke-width="2.5" points="657.5,-506.5 1009.5,-506.5 "/>
<text text-anchor="middle" x="833.5" y="-491.3" font-family="Helvetica,sans-Serif" font-size="14.00" fill="#000000">parent: 0x5eed15be82f0</text>
<polyline fill="none" stroke="#000000" stroke-width="2.5" points="657.5,-483.5 1009.5,-483.5 "/>
<text text-anchor="middle" x="742.5" y="-468.3" font-family="Helvetica,sans-Serif" font-size="14.00" fill="#000000">left: 0x5eed15be8320</text>
<polyline fill="none" stroke="#000000" stroke-width="2.5" points="827.5,-460.5 827.5,-483.5 "/>
<text text-anchor="middle" x="918.5" y="-468.3" font-family="Helvetica,sans-Serif" font-size="14.00" fill="#000000">right: 0x5eed15be8440</text>
</g>
<!-- node_0x5eed15be8320 -->
<g id="node2" class="node">
<title>node_0x5eed15be8320</title>
<path fill="salmon" stroke="#000000" stroke-width="2.5" d="M484.5,-331.5C484.5,-331.5 812.5,-331.5 812.5,-331.5 818.5,-331.5 824.5,-337.5 824.5,-343.5 824.5,-343.5 824.5,-411.5 824.5,-411.5 824.5,-417.5 818.5,-423.5 812.5,-423.5 812.5,-423.5 484.5,-423.5 484.5,-423.5 478.5,-423.5 472.5,-417.5 472.5,-411.5 472.5,-411.5 472.5,-343.5 472.5,-343.5 472.5,-337.5 478.5,-331.5 484.5,-331.5"/>
<text text-anchor="middle" x="648.5" y="-408.3" font-family="Helvetica,sans-Serif" font-size="14.00" fill="#000000">node_0x5eed15be8320</text>
<polyline fill="none" stroke="#000000" stroke-width="2.5" points="472.5,-400.5 824.5,-400.5 "/>
<text text-anchor="middle" x="648.5" y="-385.3" font-family="Helvetica,sans-Serif" font-size="14.00" fill="#000000">key: 5</text>
<polyline fill="none" stroke="#000000" stroke-width="2.5" points="472.5,-377.5 824.5,-377.5 "/>
<text text-anchor="middle" x="648.5" y="-362.3" font-family="Helvetica,sans-Serif" font-size="14.00" fill="#000000">parent: 0x5eed15be83e0</text>
<polyline fill="none" stroke="#000000" stroke-width="2.5" points="472.5,-354.5 824.5,-354.5 "/>
<text text-anchor="middle" x="557.5" y="-339.3" font-family="Helvetica,sans-Serif" font-size="14.00" fill="#000000">left: 0x5eed15be8380</text>
<polyline fill="none" stroke="#000000" stroke-width="2.5" points="642.5,-331.5 642.5,-354.5 "/>
<text text-anchor="middle" x="733.5" y="-339.3" font-family="Helvetica,sans-Serif" font-size="14.00" fill="#000000">right: 0x5eed15be8350</text>
</g>
<!-- node_0x5eed15be83e0&#45;&gt;node_0x5eed15be8320 -->
<g id="edge1" class="edge">
<title>node_0x5eed15be83e0&#45;&gt;node_0x5eed15be8320</title>
<path fill="none" stroke="black" d="M767.76,-460.37C753.26,-450.41 737.8,-439.8 722.98,-429.63"/>
<polygon fill="black" stroke="black" points="724.57,-426.48 714.34,-423.7 720.61,-432.25 724.57,-426.48"/>
</g>
<!-- node_0x5eed15be8440 -->
<g id="node6" class="node">
<title>node_0x5eed15be8440</title>
<path fill="salmon" stroke="#000000" stroke-width="2.5" d="M855,-331.5C855,-331.5 1182,-331.5 1182,-331.5 1188,-331.5 1194,-337.5 1194,-343.5 1194,-343.5 1194,-411.5 1194,-411.5 1194,-417.5 1188,-423.5 1182,-423.5 1182,-423.5 855,-423.5 855,-423.5 849,-423.5 843,-417.5 843,-411.5 843,-411.5 843,-343.5 843,-343.5 843,-337.5 849,-331.5 855,-331.5"/>
<text text-anchor="middle" x="1018.5" y="-408.3" font-family="Helvetica,sans-Serif" font-size="14.00" fill="#000000">node_0x5eed15be8440</text>
<polyline fill="none" stroke="#000000" stroke-width="2.5" points="843,-400.5 1194,-400.5 "/>
<text text-anchor="middle" x="1018.5" y="-385.3" font-family="Helvetica,sans-Serif" font-size="14.00" fill="#000000">key: 65</text>
<polyline fill="none" stroke="#000000" stroke-width="2.5" points="843,-377.5 1194,-377.5 "/>
<text text-anchor="middle" x="1018.5" y="-362.3" font-family="Helvetica,sans-Serif" font-size="14.00" fill="#000000">parent: 0x5eed15be83e0</text>
<polyline fill="none" stroke="#000000" stroke-width="2.5" points="843,-354.5 1194,-354.5 "/>
<text text-anchor="middle" x="928" y="-339.3" font-family="Helvetica,sans-Serif" font-size="14.00" fill="#000000">left: 0x5eed15be8410</text>
<polyline fill="none" stroke="#000000" stroke-width="2.5" points="1013,-331.5 1013,-354.5 "/>
<text text-anchor="middle" x="1103.5" y="-339.3" font-family="Helvetica,sans-Serif" font-size="14.00" fill="#000000">right: 0x5eed15be84a0</text>
</g>
<!-- node_0x5eed15be83e0&#45;&gt;node_0x5eed15be8440 -->
<g id="edge2" class="edge">
<title>node_0x5eed15be83e0&#45;&gt;node_0x5eed15be8440</title>
<path fill="none" stroke="black" d="M899.24,-460.37C913.74,-450.41 929.2,-439.8 944.02,-429.63"/>
<polygon fill="black" stroke="black" points="946.39,-432.25 952.66,-423.7 942.43,-426.48 946.39,-432.25"/>
</g>
<!-- node_0x5eed15be8380 -->
<g id="node3" class="node">
<title>node_0x5eed15be8380</title>
<path fill="lightgray" stroke="#000000" stroke-width="2.5" d="M123.5,-202.5C123.5,-202.5 447.5,-202.5 447.5,-202.5 453.5,-202.5 459.5,-208.5 459.5,-214.5 459.5,-214.5 459.5,-282.5 459.5,-282.5 459.5,-288.5 453.5,-294.5 447.5,-294.5 447.5,-294.5 123.5,-294.5 123.5,-294.5 117.5,-294.5 111.5,-288.5 111.5,-282.5 111.5,-282.5 111.5,-214.5 111.5,-214.5 111.5,-208.5 117.5,-202.5 123.5,-202.5"/>
<text text-anchor="middle" x="285.5" y="-279.3" font-family="Helvetica,sans-Serif" font-size="14.00" fill="#000000">node_0x5eed15be8380</text>
<polyline fill="none" stroke="#000000" stroke-width="2.5" points="111.5,-271.5 459.5,-271.5 "/>
<text text-anchor="middle" x="285.5" y="-256.3" font-family="Helvetica,sans-Serif" font-size="14.00" fill="#000000">key: 4</text>
<polyline fill="none" stroke="#000000" stroke-width="2.5" points="111.5,-248.5 459.5,-248.5 "/>
<text text-anchor="middle" x="285.5" y="-233.3" font-family="Helvetica,sans-Serif" font-size="14.00" fill="#000000">parent: 0x5eed15be8320</text>
<polyline fill="none" stroke="#000000" stroke-width="2.5" points="111.5,-225.5 459.5,-225.5 "/>
<text text-anchor="middle" x="196.5" y="-210.3" font-family="Helvetica,sans-Serif" font-size="14.00" fill="#000000">left: 0x5eed15be83b0</text>
<polyline fill="none" stroke="#000000" stroke-width="2.5" points="281.5,-202.5 281.5,-225.5 "/>
<text text-anchor="middle" x="370.5" y="-210.3" font-family="Helvetica,sans-Serif" font-size="14.00" fill="#000000">right: 0x5eed15be82f0</text>
</g>
<!-- node_0x5eed15be8320&#45;&gt;node_0x5eed15be8380 -->
<g id="edge3" class="edge">
<title>node_0x5eed15be8320&#45;&gt;node_0x5eed15be8380</title>
<path fill="none" stroke="black" d="M519.75,-331.46C488.71,-320.6 455.42,-308.95 423.96,-297.94"/>
<polygon fill="black" stroke="black" points="424.85,-294.55 414.26,-294.55 422.54,-301.15 424.85,-294.55"/>
</g>
<!-- node_0x5eed15be8350 -->
<g id="node5" class="node">
<title>node_0x5eed15be8350</title>
<path fill="lightgray" stroke="#000000" stroke-width="2.5" d="M490,-202.5C490,-202.5 811,-202.5 811,-202.5 817,-202.5 823,-208.5 823,-214.5 823,-214.5 823,-282.5 823,-282.5 823,-288.5 817,-294.5 811,-294.5 811,-294.5 490,-294.5 490,-294.5 484,-294.5 478,-288.5 478,-282.5 478,-282.5 478,-214.5 478,-214.5 478,-208.5 484,-202.5 490,-202.5"/>
<text text-anchor="middle" x="650.5" y="-279.3" font-family="Helvetica,sans-Serif" font-size="14.00" fill="#000000">node_0x5eed15be8350</text>
<polyline fill="none" stroke="#000000" stroke-width="2.5" points="478,-271.5 823,-271.5 "/>
<text text-anchor="middle" x="650.5" y="-256.3" font-family="Helvetica,sans-Serif" font-size="14.00" fill="#000000">key: 6</text>
<polyline fill="none" stroke="#000000" stroke-width="2.5" points="478,-248.5 823,-248.5 "/>
<text text-anchor="middle" x="650.5" y="-233.3" font-family="Helvetica,sans-Serif" font-size="14.00" fill="#000000">parent: 0x5eed15be8320</text>
<polyline fill="none" stroke="#000000" stroke-width="2.5" points="478,-225.5 823,-225.5 "/>
<text text-anchor="middle" x="561.5" y="-210.3" font-family="Helvetica,sans-Serif" font-size="14.00" fill="#000000">left: 0x5eed15be82f0</text>
<polyline fill="none" stroke="#000000" stroke-width="2.5" points="645,-202.5 645,-225.5 "/>
<text text-anchor="middle" x="734" y="-210.3" font-family="Helvetica,sans-Serif" font-size="14.00" fill="#000000">right: 0x5eed15be82f0</text>
</g>
<!-- node_0x5eed15be8320&#45;&gt;node_0x5eed15be8350 -->
<g id="edge4" class="edge">
<title>node_0x5eed15be8320&#45;&gt;node_0x5eed15be8350</title>
<path fill="none" stroke="black" d="M649.21,-331.37C649.34,-322.86 649.49,-313.87 649.62,-305.09"/>
<polygon fill="black" stroke="black" points="653.13,-304.97 649.78,-294.92 646.13,-304.86 653.13,-304.97"/>
</g>
<!-- node_0x5eed15be83b0 -->
<g id="node4" class="node">
<title>node_0x5eed15be83b0</title>
<path fill="salmon" stroke="#000000" stroke-width="2.5" d="M12,-73.5C12,-73.5 333,-73.5 333,-73.5 339,-73.5 345,-79.5 345,-85.5 345,-85.5 345,-153.5 345,-153.5 345,-159.5 339,-165.5 333,-165.5 333,-165.5 12,-165.5 12,-165.5 6,-165.5 0,-159.5 0,-153.5 0,-153.5 0,-85.5 0,-85.5 0,-79.5 6,-73.5 12,-73.5"/>
<text text-anchor="middle" x="172.5" y="-150.3" font-family="Helvetica,sans-Serif" font-size="14.00" fill="#000000">node_0x5eed15be83b0</text>
<polyline fill="none" stroke="#000000" stroke-width="2.5" points="0,-142.5 345,-142.5 "/>
<text text-anchor="middle" x="172.5" y="-127.3" font-family="Helvetica,sans-Serif" font-size="14.00" fill="#000000">key: 3</text>
<polyline fill="none" stroke="#000000" stroke-width="2.5" points="0,-119.5 345,-119.5 "/>
<text text-anchor="middle" x="172.5" y="-104.3" font-family="Helvetica,sans-Serif" font-size="14.00" fill="#000000">parent: 0x5eed15be8380</text>
<polyline fill="none" stroke="#000000" stroke-width="2.5" points="0,-96.5 345,-96.5 "/>
<text text-anchor="middle" x="83.5" y="-81.3" font-family="Helvetica,sans-Serif" font-size="14.00" fill="#000000">left: 0x5eed15be82f0</text>
<polyline fill="none" stroke="#000000" stroke-width="2.5" points="167,-73.5 167,-96.5 "/>
<text text-anchor="middle" x="256" y="-81.3" font-family="Helvetica,sans-Serif" font-size="14.00" fill="#000000">right: 0x5eed15be82f0</text>
</g>
<!-- node_0x5eed15be8380&#45;&gt;node_0x5eed15be83b0 -->
<g id="edge5" class="edge">
<title>node_0x5eed15be8380&#45;&gt;node_0x5eed15be83b0</title>
<path fill="none" stroke="black" d="M245.34,-202.37C237.03,-193.03 228.21,-183.11 219.67,-173.52"/>
<polygon fill="black" stroke="black" points="222.17,-171.06 212.91,-165.92 216.94,-175.71 222.17,-171.06"/>
</g>
<!-- nil_0x5eed15be8380_R -->
<g id="node11" class="node">
<title>nil_0x5eed15be8380_R</title>
<path fill="lightgray" stroke="#000000" stroke-width="2.5" d="M374.5,-101.5C374.5,-101.5 424.5,-101.5 424.5,-101.5 430.5,-101.5 436.5,-107.5 436.5,-113.5 436.5,-113.5 436.5,-125.5 436.5,-125.5 436.5,-131.5 430.5,-137.5 424.5,-137.5 424.5,-137.5 374.5,-137.5 374.5,-137.5 368.5,-137.5 362.5,-131.5 362.5,-125.5 362.5,-125.5 362.5,-113.5 362.5,-113.5 362.5,-107.5 368.5,-101.5 374.5,-101.5"/>
<text text-anchor="middle" x="399.5" y="-115.8" font-family="Helvetica,sans-Serif" font-size="14.00" fill="#000000">nil_node</text>
</g>
<!-- node_0x5eed15be8380&#45;&gt;nil_0x5eed15be8380_R -->
<g id="edge6" class="edge">
<title>node_0x5eed15be8380&#45;&gt;nil_0x5eed15be8380_R</title>
<path fill="none" stroke="black" d="M326.01,-202.37C343.28,-183.13 362.76,-161.43 377.32,-145.21"/>
<polygon fill="black" stroke="black" points="379.97,-147.5 384.05,-137.72 374.76,-142.82 379.97,-147.5"/>
</g>
<!-- nil_0x5eed15be83b0_L -->
<g id="node12" class="node">
<title>nil_0x5eed15be83b0_L</title>
<path fill="lightgray" stroke="#000000" stroke-width="2.5" d="M101.5,-0.5C101.5,-0.5 151.5,-0.5 151.5,-0.5 157.5,-0.5 163.5,-6.5 163.5,-12.5 163.5,-12.5 163.5,-24.5 163.5,-24.5 163.5,-30.5 157.5,-36.5 151.5,-36.5 151.5,-36.5 101.5,-36.5 101.5,-36.5 95.5,-36.5 89.5,-30.5 89.5,-24.5 89.5,-24.5 89.5,-12.5 89.5,-12.5 89.5,-6.5 95.5,-0.5 101.5,-0.5"/>
<text text-anchor="middle" x="126.5" y="-14.8" font-family="Helvetica,sans-Serif" font-size="14.00" fill="#000000">nil_node</text>
</g>
<!-- node_0x5eed15be83b0&#45;&gt;nil_0x5eed15be83b0_L -->
<g id="edge7" class="edge">
<title>node_0x5eed15be83b0&#45;&gt;nil_0x5eed15be83b0_L</title>
<path fill="none" stroke="black" d="M151.52,-73.35C147.16,-63.96 142.7,-54.37 138.78,-45.93"/>
<polygon fill="black" stroke="black" points="141.85,-44.23 134.46,-36.63 135.5,-47.18 141.85,-44.23"/>
</g>
<!-- nil_0x5eed15be83b0_R -->
<g id="node13" class="node">
<title>nil_0x5eed15be83b0_R</title>
<path fill="lightgray" stroke="#000000" stroke-width="2.5" d="M193.5,-0.5C193.5,-0.5 243.5,-0.5 243.5,-0.5 249.5,-0.5 255.5,-6.5 255.5,-12.5 255.5,-12.5 255.5,-24.5 255.5,-24.5 255.5,-30.5 249.5,-36.5 243.5,-36.5 243.5,-36.5 193.5,-36.5 193.5,-36.5 187.5,-36.5 181.5,-30.5 181.5,-24.5 181.5,-24.5 181.5,-12.5 181.5,-12.5 181.5,-6.5 187.5,-0.5 193.5,-0.5"/>
<text text-anchor="middle" x="218.5" y="-14.8" font-family="Helvetica,sans-Serif" font-size="14.00" fill="#000000">nil_node</text>
</g>
<!-- node_0x5eed15be83b0&#45;&gt;nil_0x5eed15be83b0_R -->
<g id="edge8" class="edge">
<title>node_0x5eed15be83b0&#45;&gt;nil_0x5eed15be83b0_R</title>
<path fill="none" stroke="black" d="M193.48,-73.35C197.84,-63.96 202.3,-54.37 206.22,-45.93"/>
<polygon fill="black" stroke="black" points="209.5,-47.18 210.54,-36.63 203.15,-44.23 209.5,-47.18"/>
</g>
<!-- nil_0x5eed15be8350_L -->
<g id="node14" class="node">
<title>nil_0x5eed15be8350_L</title>
<path fill="lightgray" stroke="#000000" stroke-width="2.5" d="M579.5,-101.5C579.5,-101.5 629.5,-101.5 629.5,-101.5 635.5,-101.5 641.5,-107.5 641.5,-113.5 641.5,-113.5 641.5,-125.5 641.5,-125.5 641.5,-131.5 635.5,-137.5 629.5,-137.5 629.5,-137.5 579.5,-137.5 579.5,-137.5 573.5,-137.5 567.5,-131.5 567.5,-125.5 567.5,-125.5 567.5,-113.5 567.5,-113.5 567.5,-107.5 573.5,-101.5 579.5,-101.5"/>
<text text-anchor="middle" x="604.5" y="-115.8" font-family="Helvetica,sans-Serif" font-size="14.00" fill="#000000">nil_node</text>
</g>
<!-- node_0x5eed15be8350&#45;&gt;nil_0x5eed15be8350_L -->
<g id="edge9" class="edge">
<title>node_0x5eed15be8350&#45;&gt;nil_0x5eed15be8350_L</title>
<path fill="none" stroke="black" d="M634.15,-202.37C627.5,-184 620.04,-163.4 614.26,-147.45"/>
<polygon fill="black" stroke="black" points="617.43,-145.93 610.74,-137.72 610.85,-148.31 617.43,-145.93"/>
</g>
<!-- nil_0x5eed15be8350_R -->
<g id="node15" class="node">
<title>nil_0x5eed15be8350_R</title>
<path fill="lightgray" stroke="#000000" stroke-width="2.5" d="M671.5,-101.5C671.5,-101.5 721.5,-101.5 721.5,-101.5 727.5,-101.5 733.5,-107.5 733.5,-113.5 733.5,-113.5 733.5,-125.5 733.5,-125.5 733.5,-131.5 727.5,-137.5 721.5,-137.5 721.5,-137.5 671.5,-137.5 671.5,-137.5 665.5,-137.5 659.5,-131.5 659.5,-125.5 659.5,-125.5 659.5,-113.5 659.5,-113.5 659.5,-107.5 665.5,-101.5 671.5,-101.5"/>
<text text-anchor="middle" x="696.5" y="-115.8" font-family="Helvetica,sans-Serif" font-size="14.00" fill="#000000">nil_node</text>
</g>
<!-- node_0x5eed15be8350&#45;&gt;nil_0x5eed15be8350_R -->
<g id="edge10" class="edge">
<title>node_0x5eed15be8350&#45;&gt;nil_0x5eed15be8350_R</title>
<path fill="none" stroke="black" d="M666.85,-202.37C673.5,-184 680.96,-163.4 686.74,-147.45"/>
<polygon fill="black" stroke="black" points="690.15,-148.31 690.26,-137.72 683.57,-145.93 690.15,-148.31"/>
</g>
<!-- node_0x5eed15be8410 -->
<g id="node7" class="node">
<title>node_0x5eed15be8410</title>
<path fill="lightgray" stroke="#000000" stroke-width="2.5" d="M856,-202.5C856,-202.5 1177,-202.5 1177,-202.5 1183,-202.5 1189,-208.5 1189,-214.5 1189,-214.5 1189,-282.5 1189,-282.5 1189,-288.5 1183,-294.5 1177,-294.5 1177,-294.5 856,-294.5 856,-294.5 850,-294.5 844,-288.5 844,-282.5 844,-282.5 844,-214.5 844,-214.5 844,-208.5 850,-202.5 856,-202.5"/>
<text text-anchor="middle" x="1016.5" y="-279.3" font-family="Helvetica,sans-Serif" font-size="14.00" fill="#000000">node_0x5eed15be8410</text>
<polyline fill="none" stroke="#000000" stroke-width="2.5" points="844,-271.5 1189,-271.5 "/>
<text text-anchor="middle" x="1016.5" y="-256.3" font-family="Helvetica,sans-Serif" font-size="14.00" fill="#000000">key: 34</text>
<polyline fill="none" stroke="#000000" stroke-width="2.5" points="844,-248.5 1189,-248.5 "/>
<text text-anchor="middle" x="1016.5" y="-233.3" font-family="Helvetica,sans-Serif" font-size="14.00" fill="#000000">parent: 0x5eed15be8440</text>
<polyline fill="none" stroke="#000000" stroke-width="2.5" points="844,-225.5 1189,-225.5 "/>
<text text-anchor="middle" x="927.5" y="-210.3" font-family="Helvetica,sans-Serif" font-size="14.00" fill="#000000">left: 0x5eed15be82f0</text>
<polyline fill="none" stroke="#000000" stroke-width="2.5" points="1011,-202.5 1011,-225.5 "/>
<text text-anchor="middle" x="1100" y="-210.3" font-family="Helvetica,sans-Serif" font-size="14.00" fill="#000000">right: 0x5eed15be82f0</text>
</g>
<!-- node_0x5eed15be8440&#45;&gt;node_0x5eed15be8410 -->
<g id="edge11" class="edge">
<title>node_0x5eed15be8440&#45;&gt;node_0x5eed15be8410</title>
<path fill="none" stroke="black" d="M1017.79,-331.37C1017.66,-322.86 1017.51,-313.87 1017.38,-305.09"/>
<polygon fill="black" stroke="black" points="1020.87,-304.86 1017.22,-294.92 1013.87,-304.97 1020.87,-304.86"/>
</g>
<!-- node_0x5eed15be84a0 -->
<g id="node8" class="node">
<title>node_0x5eed15be84a0</title>
<path fill="lightgray" stroke="#000000" stroke-width="2.5" d="M1218.5,-202.5C1218.5,-202.5 1546.5,-202.5 1546.5,-202.5 1552.5,-202.5 1558.5,-208.5 1558.5,-214.5 1558.5,-214.5 1558.5,-282.5 1558.5,-282.5 1558.5,-288.5 1552.5,-294.5 1546.5,-294.5 1546.5,-294.5 1218.5,-294.5 1218.5,-294.5 1212.5,-294.5 1206.5,-288.5 1206.5,-282.5 1206.5,-282.5 1206.5,-214.5 1206.5,-214.5 1206.5,-208.5 1212.5,-202.5 1218.5,-202.5"/>
<text text-anchor="middle" x="1382.5" y="-279.3" font-family="Helvetica,sans-Serif" font-size="14.00" fill="#000000">node_0x5eed15be84a0</text>
<polyline fill="none" stroke="#000000" stroke-width="2.5" points="1206.5,-271.5 1558.5,-271.5 "/>
<text text-anchor="middle" x="1382.5" y="-256.3" font-family="Helvetica,sans-Serif" font-size="14.00" fill="#000000">key: 85</text>
<polyline fill="none" stroke="#000000" stroke-width="2.5" points="1206.5,-248.5 1558.5,-248.5 "/>
<text text-anchor="middle" x="1382.5" y="-233.3" font-family="Helvetica,sans-Serif" font-size="14.00" fill="#000000">parent: 0x5eed15be8440</text>
<polyline fill="none" stroke="#000000" stroke-width="2.5" points="1206.5,-225.5 1558.5,-225.5 "/>
<text text-anchor="middle" x="1291.5" y="-210.3" font-family="Helvetica,sans-Serif" font-size="14.00" fill="#000000">left: 0x5eed15be8470</text>
<polyline fill="none" stroke="#000000" stroke-width="2.5" points="1376.5,-202.5 1376.5,-225.5 "/>
<text text-anchor="middle" x="1467.5" y="-210.3" font-family="Helvetica,sans-Serif" font-size="14.00" fill="#000000">right: 0x5eed15be84d0</text>
</g>
<!-- node_0x5eed15be8440&#45;&gt;node_0x5eed15be84a0 -->
<g id="edge12" class="edge">
<title>node_0x5eed15be8440&#45;&gt;node_0x5eed15be84a0</title>
<path fill="none" stroke="black" d="M1147.6,-331.46C1178.73,-320.6 1212.11,-308.95 1243.66,-297.94"/>
<polygon fill="black" stroke="black" points="1245.1,-301.15 1253.39,-294.55 1242.79,-294.54 1245.1,-301.15"/>
</g>
<!-- nil_0x5eed15be8410_L -->
<g id="node16" class="node">
<title>nil_0x5eed15be8410_L</title>
<path fill="lightgray" stroke="#000000" stroke-width="2.5" d="M934.5,-101.5C934.5,-101.5 984.5,-101.5 984.5,-101.5 990.5,-101.5 996.5,-107.5 996.5,-113.5 996.5,-113.5 996.5,-125.5 996.5,-125.5 996.5,-131.5 990.5,-137.5 984.5,-137.5 984.5,-137.5 934.5,-137.5 934.5,-137.5 928.5,-137.5 922.5,-131.5 922.5,-125.5 922.5,-125.5 922.5,-113.5 922.5,-113.5 922.5,-107.5 928.5,-101.5 934.5,-101.5"/>
<text text-anchor="middle" x="959.5" y="-115.8" font-family="Helvetica,sans-Serif" font-size="14.00" fill="#000000">nil_node</text>
</g>
<!-- node_0x5eed15be8410&#45;&gt;nil_0x5eed15be8410_L -->
<g id="edge13" class="edge">
<title>node_0x5eed15be8410&#45;&gt;nil_0x5eed15be8410_L</title>
<path fill="none" stroke="black" d="M996.24,-202.37C987.92,-183.83 978.58,-163 971.39,-147"/>
<polygon fill="black" stroke="black" points="974.51,-145.41 967.23,-137.72 968.13,-148.27 974.51,-145.41"/>
</g>
<!-- nil_0x5eed15be8410_R -->
<g id="node17" class="node">
<title>nil_0x5eed15be8410_R</title>
<path fill="lightgray" stroke="#000000" stroke-width="2.5" d="M1026.5,-101.5C1026.5,-101.5 1076.5,-101.5 1076.5,-101.5 1082.5,-101.5 1088.5,-107.5 1088.5,-113.5 1088.5,-113.5 1088.5,-125.5 1088.5,-125.5 1088.5,-131.5 1082.5,-137.5 1076.5,-137.5 1076.5,-137.5 1026.5,-137.5 1026.5,-137.5 1020.5,-137.5 1014.5,-131.5 1014.5,-125.5 1014.5,-125.5 1014.5,-113.5 1014.5,-113.5 1014.5,-107.5 1020.5,-101.5 1026.5,-101.5"/>
<text text-anchor="middle" x="1051.5" y="-115.8" font-family="Helvetica,sans-Serif" font-size="14.00" fill="#000000">nil_node</text>
</g>
<!-- node_0x5eed15be8410&#45;&gt;nil_0x5eed15be8410_R -->
<g id="edge14" class="edge">
<title>node_0x5eed15be8410&#45;&gt;nil_0x5eed15be8410_R</title>
<path fill="none" stroke="black" d="M1028.94,-202.37C1034,-184 1039.68,-163.4 1044.07,-147.45"/>
<polygon fill="black" stroke="black" points="1047.47,-148.29 1046.76,-137.72 1040.72,-146.43 1047.47,-148.29"/>
</g>
<!-- node_0x5eed15be8470 -->
<g id="node9" class="node">
<title>node_0x5eed15be8470</title>
<path fill="salmon" stroke="#000000" stroke-width="2.5" d="M1187,-73.5C1187,-73.5 1508,-73.5 1508,-73.5 1514,-73.5 1520,-79.5 1520,-85.5 1520,-85.5 1520,-153.5 1520,-153.5 1520,-159.5 1514,-165.5 1508,-165.5 1508,-165.5 1187,-165.5 1187,-165.5 1181,-165.5 1175,-159.5 1175,-153.5 1175,-153.5 1175,-85.5 1175,-85.5 1175,-79.5 1181,-73.5 1187,-73.5"/>
<text text-anchor="middle" x="1347.5" y="-150.3" font-family="Helvetica,sans-Serif" font-size="14.00" fill="#000000">node_0x5eed15be8470</text>
<polyline fill="none" stroke="#000000" stroke-width="2.5" points="1175,-142.5 1520,-142.5 "/>
<text text-anchor="middle" x="1347.5" y="-127.3" font-family="Helvetica,sans-Serif" font-size="14.00" fill="#000000">key: 75</text>
<polyline fill="none" stroke="#000000" stroke-width="2.5" points="1175,-119.5 1520,-119.5 "/>
<text text-anchor="middle" x="1347.5" y="-104.3" font-family="Helvetica,sans-Serif" font-size="14.00" fill="#000000">parent: 0x5eed15be84a0</text>
<polyline fill="none" stroke="#000000" stroke-width="2.5" points="1175,-96.5 1520,-96.5 "/>
<text text-anchor="middle" x="1258.5" y="-81.3" font-family="Helvetica,sans-Serif" font-size="14.00" fill="#000000">left: 0x5eed15be82f0</text>
<polyline fill="none" stroke="#000000" stroke-width="2.5" points="1342,-73.5 1342,-96.5 "/>
<text text-anchor="middle" x="1431" y="-81.3" font-family="Helvetica,sans-Serif" font-size="14.00" fill="#000000">right: 0x5eed15be82f0</text>
</g>
<!-- node_0x5eed15be84a0&#45;&gt;node_0x5eed15be8470 -->
<g id="edge15" class="edge">
<title>node_0x5eed15be84a0&#45;&gt;node_0x5eed15be8470</title>
<path fill="none" stroke="black" d="M1370.06,-202.37C1367.69,-193.77 1365.19,-184.68 1362.74,-175.8"/>
<polygon fill="black" stroke="black" points="1366.05,-174.63 1360.02,-165.92 1359.3,-176.49 1366.05,-174.63"/>
</g>
<!-- node_0x5eed15be84d0 -->
<g id="node10" class="node">
<title>node_0x5eed15be84d0</title>
<path fill="salmon" stroke="#000000" stroke-width="2.5" d="M1550,-73.5C1550,-73.5 1871,-73.5 1871,-73.5 1877,-73.5 1883,-79.5 1883,-85.5 1883,-85.5 1883,-153.5 1883,-153.5 1883,-159.5 1877,-165.5 1871,-165.5 1871,-165.5 1550,-165.5 1550,-165.5 1544,-165.5 1538,-159.5 1538,-153.5 1538,-153.5 1538,-85.5 1538,-85.5 1538,-79.5 1544,-73.5 1550,-73.5"/>
<text text-anchor="middle" x="1710.5" y="-150.3" font-family="Helvetica,sans-Serif" font-size="14.00" fill="#000000">node_0x5eed15be84d0</text>
<polyline fill="none" stroke="#000000" stroke-width="2.5" points="1538,-142.5 1883,-142.5 "/>
<text text-anchor="middle" x="1710.5" y="-127.3" font-family="Helvetica,sans-Serif" font-size="14.00" fill="#000000">key: 95</text>
<polyline fill="none" stroke="#000000" stroke-width="2.5" points="1538,-119.5 1883,-119.5 "/>
<text text-anchor="middle" x="1710.5" y="-104.3" font-family="Helvetica,sans-Serif" font-size="14.00" fill="#000000">parent: 0x5eed15be84a0</text>
<polyline fill="none" stroke="#000000" stroke-width="2.5" points="1538,-96.5 1883,-96.5 "/>
<text text-anchor="middle" x="1621.5" y="-81.3" font-family="Helvetica,sans-Serif" font-size="14.00" fill="#000000">left: 0x5eed15be82f0</text>
<polyline fill="none" stroke="#000000" stroke-width="2.5" points="1705,-73.5 1705,-96.5 "/>
<text text-anchor="middle" x="1794" y="-81.3" font-family="Helvetica,sans-Serif" font-size="14.00" fill="#000000">right: 0x5eed15be82f0</text>
</g>
<!-- node_0x5eed15be84a0&#45;&gt;node_0x5eed15be84d0 -->
<g id="edge16" class="edge">
<title>node_0x5eed15be84a0&#45;&gt;node_0x5eed15be84d0</title>
<path fill="none" stroke="black" d="M1499.06,-202.37C1526.77,-191.64 1556.46,-180.14 1584.57,-169.26"/>
<polygon fill="black" stroke="black" points="1585.97,-172.47 1594.04,-165.59 1583.45,-165.94 1585.97,-172.47"/>
</g>
<!-- nil_0x5eed15be8470_L -->
<g id="node18" class="node">
<title>nil_0x5eed15be8470_L</title>
<path fill="lightgray" stroke="#000000" stroke-width="2.5" d="M1276.5,-0.5C1276.5,-0.5 1326.5,-0.5 1326.5,-0.5 1332.5,-0.5 1338.5,-6.5 1338.5,-12.5 1338.5,-12.5 1338.5,-24.5 1338.5,-24.5 1338.5,-30.5 1332.5,-36.5 1326.5,-36.5 1326.5,-36.5 1276.5,-36.5 1276.5,-36.5 1270.5,-36.5 1264.5,-30.5 1264.5,-24.5 1264.5,-24.5 1264.5,-12.5 1264.5,-12.5 1264.5,-6.5 1270.5,-0.5 1276.5,-0.5"/>
<text text-anchor="middle" x="1301.5" y="-14.8" font-family="Helvetica,sans-Serif" font-size="14.00" fill="#000000">nil_node</text>
</g>
<!-- node_0x5eed15be8470&#45;&gt;nil_0x5eed15be8470_L -->
<g id="edge17" class="edge">
<title>node_0x5eed15be8470&#45;&gt;nil_0x5eed15be8470_L</title>
<path fill="none" stroke="black" d="M1326.52,-73.35C1322.16,-63.96 1317.7,-54.37 1313.78,-45.93"/>
<polygon fill="black" stroke="black" points="1316.85,-44.23 1309.46,-36.63 1310.5,-47.18 1316.85,-44.23"/>
</g>
<!-- nil_0x5eed15be8470_R -->
<g id="node19" class="node">
<title>nil_0x5eed15be8470_R</title>
<path fill="lightgray" stroke="#000000" stroke-width="2.5" d="M1368.5,-0.5C1368.5,-0.5 1418.5,-0.5 1418.5,-0.5 1424.5,-0.5 1430.5,-6.5 1430.5,-12.5 1430.5,-12.5 1430.5,-24.5 1430.5,-24.5 1430.5,-30.5 1424.5,-36.5 1418.5,-36.5 1418.5,-36.5 1368.5,-36.5 1368.5,-36.5 1362.5,-36.5 1356.5,-30.5 1356.5,-24.5 1356.5,-24.5 1356.5,-12.5 1356.5,-12.5 1356.5,-6.5 1362.5,-0.5 1368.5,-0.5"/>
<text text-anchor="middle" x="1393.5" y="-14.8" font-family="Helvetica,sans-Serif" font-size="14.00" fill="#000000">nil_node</text>
</g>
<!-- node_0x5eed15be8470&#45;&gt;nil_0x5eed15be8470_R -->
<g id="edge18" class="edge">
<title>node_0x5eed15be8470&#45;&gt;nil_0x5eed15be8470_R</title>
<path fill="none" stroke="black" d="M1368.48,-73.35C1372.84,-63.96 1377.3,-54.37 1381.22,-45.93"/>
<polygon fill="black" stroke="black" points="1384.5,-47.18 1385.54,-36.63 1378.15,-44.23 1384.5,-47.18"/>
</g>
<!-- nil_0x5eed15be84d0_L -->
<g id="node20" class="node">
<title>nil_0x5eed15be84d0_L</title>
<path fill="lightgray" stroke="#000000" stroke-width="2.5" d="M1639.5,-0.5C1639.5,-0.5 1689.5,-0.5 1689.5,-0.5 1695.5,-0.5 1701.5,-6.5 1701.5,-12.5 1701.5,-12.5 1701.5,-24.5 1701.5,-24.5 1701.5,-30.5 1695.5,-36.5 1689.5,-36.5 1689.5,-36.5 1639.5,-36.5 1639.5,-36.5 1633.5,-36.5 1627.5,-30.5 1627.5,-24.5 1627.5,-24.5 1627.5,-12.5 1627.5,-12.5 1627.5,-6.5 1633.5,-0.5 1639.5,-0.5"/>
<text text-anchor="middle" x="1664.5" y="-14.8" font-family="Helvetica,sans-Serif" font-size="14.00" fill="#000000">nil_node</text>
</g>
<!-- node_0x5eed15be84d0&#45;&gt;nil_0x5eed15be84d0_L -->
<g id="edge19" class="edge">
<title>node_0x5eed15be84d0&#45;&gt;nil_0x5eed15be84d0_L</title>
<path fill="none" stroke="black" d="M1689.52,-73.35C1685.16,-63.96 1680.7,-54.37 1676.78,-45.93"/>
<polygon fill="black" stroke="black" points="1679.85,-44.23 1672.46,-36.63 1673.5,-47.18 1679.85,-44.23"/>
</g>
<!-- nil_0x5eed15be84d0_R -->
<g id="node21" class="node">
<title>nil_0x5eed15be84d0_R</title>
<path fill="lightgray" stroke="#000000" stroke-width="2.5" d="M1731.5,-0.5C1731.5,-0.5 1781.5,-0.5 1781.5,-0.5 1787.5,-0.5 1793.5,-6.5 1793.5,-12.5 1793.5,-12.5 1793.5,-24.5 1793.5,-24.5 1793.5,-30.5 1787.5,-36.5 1781.5,-36.5 1781.5,-36.5 1731.5,-36.5 1731.5,-36.5 1725.5,-36.5 1719.5,-30.5 1719.5,-24.5 1719.5,-24.5 1719.5,-12.5 1719.5,-12.5 1719.5,-6.5 1725.5,-0.5 1731.5,-0.5"/>
<text text-anchor="middle" x="1756.5" y="-14.8" font-family="Helvetica,sans-Serif" font-size="14.00" fill="#000000">nil_node</text>
</g>
<!-- node_0x5eed15be84d0&#45;&gt;nil_0x5eed15be84d0_R -->
<g id="edge20" class="edge">
<title>node_0x5eed15be84d0&#45;&gt;nil_0x5eed15be84d0_R</title>
<path fill="none" stroke="black" d="M1731.48,-73.35C1735.84,-63.96 1740.3,-54.37 1744.22,-45.93"/>
<polygon fill="black" stroke="black" points="1747.5,-47.18 1748.54,-36.63 1741.15,-44.23 1747.5,-47.18"/>
</g>
</g>
</svg>
