<?xml version="1.0" encoding="UTF-8" standalone="no"?>
<!DOCTYPE svg PUBLIC "-//W3C//DTD SVG 1.1//EN"
 "http://www.w3.org/Graphics/SVG/1.1/DTD/svg11.dtd">
<!-- Generated by graphviz version 2.43.0 (0)
 -->
<!-- Title: G Pages: 1 -->
<svg width="660pt" height="432pt"
 viewBox="0.00 0.00 659.50 432.00" xmlns="http://www.w3.org/2000/svg" xmlns:xlink="http://www.w3.org/1999/xlink">
<g id="graph0" class="graph" transform="scale(1 1) rotate(0) translate(4 428)">
<title>G</title>
<polygon fill="lemonchiffon" stroke="transparent" points="-4,4 -4,-428 655.5,-428 655.5,4 -4,4"/>
<!-- node_0x561213a6aef0 -->
<g id="node1" class="node">
<title>node_0x561213a6aef0</title>
<path fill="lightgray" stroke="#000000" stroke-width="2.5" d="M252.5,-331.5C252.5,-331.5 574.5,-331.5 574.5,-331.5 580.5,-331.5 586.5,-337.5 586.5,-343.5 586.5,-343.5 586.5,-411.5 586.5,-411.5 586.5,-417.5 580.5,-423.5 574.5,-423.5 574.5,-423.5 252.5,-423.5 252.5,-423.5 246.5,-423.5 240.5,-417.5 240.5,-411.5 240.5,-411.5 240.5,-343.5 240.5,-343.5 240.5,-337.5 246.5,-331.5 252.5,-331.5"/>
<text text-anchor="middle" x="413.5" y="-408.3" font-family="Helvetica,sans-Serif" font-size="14.00" fill="#000000">node_0x561213a6aef0</text>
<polyline fill="none" stroke="#000000" stroke-width="2.5" points="240.5,-400.5 586.5,-400.5 "/>
<text text-anchor="middle" x="413.5" y="-385.3" font-family="Helvetica,sans-Serif" font-size="14.00" fill="#000000">key: 10</text>
<polyline fill="none" stroke="#000000" stroke-width="2.5" points="240.5,-377.5 586.5,-377.5 "/>
<text text-anchor="middle" x="413.5" y="-362.3" font-family="Helvetica,sans-Serif" font-size="14.00" fill="#000000">parent: 0</text>
<polyline fill="none" stroke="#000000" stroke-width="2.5" points="240.5,-354.5 586.5,-354.5 "/>
<text text-anchor="middle" x="324" y="-339.3" font-family="Helvetica,sans-Serif" font-size="14.00" fill="#000000">left: 0x561213a6af20</text>
<polyline fill="none" stroke="#000000" stroke-width="2.5" points="407.5,-331.5 407.5,-354.5 "/>
<text text-anchor="middle" x="497" y="-339.3" font-family="Helvetica,sans-Serif" font-size="14.00" fill="#000000">right: 0x561213a6af50</text>
</g>
<!-- node_0x561213a6af20 -->
<g id="node2" class="node">
<title>node_0x561213a6af20</title>
<path fill="lightgray" stroke="#000000" stroke-width="2.5" d="M109.5,-202.5C109.5,-202.5 431.5,-202.5 431.5,-202.5 437.5,-202.5 443.5,-208.5 443.5,-214.5 443.5,-214.5 443.5,-282.5 443.5,-282.5 443.5,-288.5 437.5,-294.5 431.5,-294.5 431.5,-294.5 109.5,-294.5 109.5,-294.5 103.5,-294.5 97.5,-288.5 97.5,-282.5 97.5,-282.5 97.5,-214.5 97.5,-214.5 97.5,-208.5 103.5,-202.5 109.5,-202.5"/>
<text text-anchor="middle" x="270.5" y="-279.3" font-family="Helvetica,sans-Serif" font-size="14.00" fill="#000000">node_0x561213a6af20</text>
<polyline fill="none" stroke="#000000" stroke-width="2.5" points="97.5,-271.5 443.5,-271.5 "/>
<text text-anchor="middle" x="270.5" y="-256.3" font-family="Helvetica,sans-Serif" font-size="14.00" fill="#000000">key: 5</text>
<polyline fill="none" stroke="#000000" stroke-width="2.5" points="97.5,-248.5 443.5,-248.5 "/>
<text text-anchor="middle" x="270.5" y="-233.3" font-family="Helvetica,sans-Serif" font-size="14.00" fill="#000000">parent: 0x561213a6aef0</text>
<polyline fill="none" stroke="#000000" stroke-width="2.5" points="97.5,-225.5 443.5,-225.5 "/>
<text text-anchor="middle" x="181" y="-210.3" font-family="Helvetica,sans-Serif" font-size="14.00" fill="#000000">left: 0x561213a6af80</text>
<polyline fill="none" stroke="#000000" stroke-width="2.5" points="264.5,-202.5 264.5,-225.5 "/>
<text text-anchor="middle" x="354" y="-210.3" font-family="Helvetica,sans-Serif" font-size="14.00" fill="#000000">right: 0x561213a6afb0</text>
</g>
<!-- node_0x561213a6aef0&#45;&gt;node_0x561213a6af20 -->
<g id="edge1" class="edge">
<title>node_0x561213a6aef0&#45;&gt;node_0x561213a6af20</title>
<path fill="none" stroke="black" d="M362.68,-331.37C351.85,-321.75 340.33,-311.52 329.24,-301.67"/>
<polygon fill="black" stroke="black" points="331.44,-298.94 321.64,-294.92 326.79,-304.17 331.44,-298.94"/>
</g>
<!-- node_0x561213a6af50 -->
<g id="node5" class="node">
<title>node_0x561213a6af50</title>
<path fill="salmon" stroke="#000000" stroke-width="2.5" d="M473.5,-202.5C473.5,-202.5 639.5,-202.5 639.5,-202.5 645.5,-202.5 651.5,-208.5 651.5,-214.5 651.5,-214.5 651.5,-282.5 651.5,-282.5 651.5,-288.5 645.5,-294.5 639.5,-294.5 639.5,-294.5 473.5,-294.5 473.5,-294.5 467.5,-294.5 461.5,-288.5 461.5,-282.5 461.5,-282.5 461.5,-214.5 461.5,-214.5 461.5,-208.5 467.5,-202.5 473.5,-202.5"/>
<text text-anchor="middle" x="556.5" y="-279.3" font-family="Helvetica,sans-Serif" font-size="14.00" fill="#000000">node_0x561213a6af50</text>
<polyline fill="none" stroke="#000000" stroke-width="2.5" points="461.5,-271.5 651.5,-271.5 "/>
<text text-anchor="middle" x="556.5" y="-256.3" font-family="Helvetica,sans-Serif" font-size="14.00" fill="#000000">key: 15</text>
<polyline fill="none" stroke="#000000" stroke-width="2.5" points="461.5,-248.5 651.5,-248.5 "/>
<text text-anchor="middle" x="556.5" y="-233.3" font-family="Helvetica,sans-Serif" font-size="14.00" fill="#000000">parent: 0x561213a6aef0</text>
<polyline fill="none" stroke="#000000" stroke-width="2.5" points="461.5,-225.5 651.5,-225.5 "/>
<text text-anchor="middle" x="506" y="-210.3" font-family="Helvetica,sans-Serif" font-size="14.00" fill="#000000">left: 0</text>
<polyline fill="none" stroke="#000000" stroke-width="2.5" points="550.5,-202.5 550.5,-225.5 "/>
<text text-anchor="middle" x="601" y="-210.3" font-family="Helvetica,sans-Serif" font-size="14.00" fill="#000000">right: 0</text>
</g>
<!-- node_0x561213a6aef0&#45;&gt;node_0x561213a6af50 -->
<g id="edge2" class="edge">
<title>node_0x561213a6aef0&#45;&gt;node_0x561213a6af50</title>
<path fill="none" stroke="black" d="M464.32,-331.37C475.15,-321.75 486.67,-311.52 497.76,-301.67"/>
<polygon fill="black" stroke="black" points="500.21,-304.17 505.36,-294.92 495.56,-298.94 500.21,-304.17"/>
</g>
<!-- node_0x561213a6af80 -->
<g id="node3" class="node">
<title>node_0x561213a6af80</title>
<path fill="lightgray" stroke="#000000" stroke-width="2.5" d="M12,-73.5C12,-73.5 179,-73.5 179,-73.5 185,-73.5 191,-79.5 191,-85.5 191,-85.5 191,-153.5 191,-153.5 191,-159.5 185,-165.5 179,-165.5 179,-165.5 12,-165.5 12,-165.5 6,-165.5 0,-159.5 0,-153.5 0,-153.5 0,-85.5 0,-85.5 0,-79.5 6,-73.5 12,-73.5"/>
<text text-anchor="middle" x="95.5" y="-150.3" font-family="Helvetica,sans-Serif" font-size="14.00" fill="#000000">node_0x561213a6af80</text>
<polyline fill="none" stroke="#000000" stroke-width="2.5" points="0,-142.5 191,-142.5 "/>
<text text-anchor="middle" x="95.5" y="-127.3" font-family="Helvetica,sans-Serif" font-size="14.00" fill="#000000">key: 7</text>
<polyline fill="none" stroke="#000000" stroke-width="2.5" points="0,-119.5 191,-119.5 "/>
<text text-anchor="middle" x="95.5" y="-104.3" font-family="Helvetica,sans-Serif" font-size="14.00" fill="#000000">parent: 0x561213a6af20</text>
<polyline fill="none" stroke="#000000" stroke-width="2.5" points="0,-96.5 191,-96.5 "/>
<text text-anchor="middle" x="44.5" y="-81.3" font-family="Helvetica,sans-Serif" font-size="14.00" fill="#000000">left: 0</text>
<polyline fill="none" stroke="#000000" stroke-width="2.5" points="89,-73.5 89,-96.5 "/>
<text text-anchor="middle" x="140" y="-81.3" font-family="Helvetica,sans-Serif" font-size="14.00" fill="#000000">right: 0</text>
</g>
<!-- node_0x561213a6af20&#45;&gt;node_0x561213a6af80 -->
<g id="edge3" class="edge">
<title>node_0x561213a6af20&#45;&gt;node_0x561213a6af80</title>
<path fill="none" stroke="black" d="M208.31,-202.37C194.59,-192.41 179.97,-181.8 165.96,-171.63"/>
<polygon fill="black" stroke="black" points="167.93,-168.74 157.79,-165.7 163.82,-174.41 167.93,-168.74"/>
</g>
<!-- node_0x561213a6afb0 -->
<g id="node4" class="node">
<title>node_0x561213a6afb0</title>
<path fill="salmon" stroke="#000000" stroke-width="2.5" d="M221,-73.5C221,-73.5 388,-73.5 388,-73.5 394,-73.5 400,-79.5 400,-85.5 400,-85.5 400,-153.5 400,-153.5 400,-159.5 394,-165.5 388,-165.5 388,-165.5 221,-165.5 221,-165.5 215,-165.5 209,-159.5 209,-153.5 209,-153.5 209,-85.5 209,-85.5 209,-79.5 215,-73.5 221,-73.5"/>
<text text-anchor="middle" x="304.5" y="-150.3" font-family="Helvetica,sans-Serif" font-size="14.00" fill="#000000">node_0x561213a6afb0</text>
<polyline fill="none" stroke="#000000" stroke-width="2.5" points="209,-142.5 400,-142.5 "/>
<text text-anchor="middle" x="304.5" y="-127.3" font-family="Helvetica,sans-Serif" font-size="14.00" fill="#000000">key: 4</text>
<polyline fill="none" stroke="#000000" stroke-width="2.5" points="209,-119.5 400,-119.5 "/>
<text text-anchor="middle" x="304.5" y="-104.3" font-family="Helvetica,sans-Serif" font-size="14.00" fill="#000000">parent: 0x561213a6af20</text>
<polyline fill="none" stroke="#000000" stroke-width="2.5" points="209,-96.5 400,-96.5 "/>
<text text-anchor="middle" x="253.5" y="-81.3" font-family="Helvetica,sans-Serif" font-size="14.00" fill="#000000">left: 0</text>
<polyline fill="none" stroke="#000000" stroke-width="2.5" points="298,-73.5 298,-96.5 "/>
<text text-anchor="middle" x="349" y="-81.3" font-family="Helvetica,sans-Serif" font-size="14.00" fill="#000000">right: 0</text>
</g>
<!-- node_0x561213a6af20&#45;&gt;node_0x561213a6afb0 -->
<g id="edge4" class="edge">
<title>node_0x561213a6af20&#45;&gt;node_0x561213a6afb0</title>
<path fill="none" stroke="black" d="M282.58,-202.37C284.88,-193.77 287.32,-184.68 289.69,-175.8"/>
<polygon fill="black" stroke="black" points="293.14,-176.48 292.34,-165.92 286.37,-174.67 293.14,-176.48"/>
</g>
<!-- nil_0x561213a6af80_L -->
<g id="node6" class="node">
<title>nil_0x561213a6af80_L</title>
<path fill="lightgray" stroke="#000000" stroke-width="2.5" d="M37.5,-0.5C37.5,-0.5 87.5,-0.5 87.5,-0.5 93.5,-0.5 99.5,-6.5 99.5,-12.5 99.5,-12.5 99.5,-24.5 99.5,-24.5 99.5,-30.5 93.5,-36.5 87.5,-36.5 87.5,-36.5 37.5,-36.5 37.5,-36.5 31.5,-36.5 25.5,-30.5 25.5,-24.5 25.5,-24.5 25.5,-12.5 25.5,-12.5 25.5,-6.5 31.5,-0.5 37.5,-0.5"/>
<text text-anchor="middle" x="62.5" y="-14.8" font-family="Helvetica,sans-Serif" font-size="14.00" fill="#000000">nil_node</text>
</g>
<!-- node_0x561213a6af80&#45;&gt;nil_0x561213a6af80_L -->
<g id="edge5" class="edge">
<title>node_0x561213a6af80&#45;&gt;nil_0x561213a6af80_L</title>
<path fill="none" stroke="black" d="M80.45,-73.35C77.35,-64.06 74.19,-54.58 71.4,-46.2"/>
<polygon fill="black" stroke="black" points="74.69,-45.01 68.21,-36.63 68.05,-47.23 74.69,-45.01"/>
</g>
<!-- nil_0x561213a6af80_R -->
<g id="node7" class="node">
<title>nil_0x561213a6af80_R</title>
<path fill="lightgray" stroke="#000000" stroke-width="2.5" d="M129.5,-0.5C129.5,-0.5 179.5,-0.5 179.5,-0.5 185.5,-0.5 191.5,-6.5 191.5,-12.5 191.5,-12.5 191.5,-24.5 191.5,-24.5 191.5,-30.5 185.5,-36.5 179.5,-36.5 179.5,-36.5 129.5,-36.5 129.5,-36.5 123.5,-36.5 117.5,-30.5 117.5,-24.5 117.5,-24.5 117.5,-12.5 117.5,-12.5 117.5,-6.5 123.5,-0.5 129.5,-0.5"/>
<text text-anchor="middle" x="154.5" y="-14.8" font-family="Helvetica,sans-Serif" font-size="14.00" fill="#000000">nil_node</text>
</g>
<!-- node_0x561213a6af80&#45;&gt;nil_0x561213a6af80_R -->
<g id="edge6" class="edge">
<title>node_0x561213a6af80&#45;&gt;nil_0x561213a6af80_R</title>
<path fill="none" stroke="black" d="M122.41,-73.35C128.12,-63.76 133.97,-53.95 139.08,-45.38"/>
<polygon fill="black" stroke="black" points="142.18,-47.01 144.29,-36.63 136.16,-43.43 142.18,-47.01"/>
</g>
<!-- nil_0x561213a6afb0_L -->
<g id="node8" class="node">
<title>nil_0x561213a6afb0_L</title>
<path fill="lightgray" stroke="#000000" stroke-width="2.5" d="M250.5,-0.5C250.5,-0.5 300.5,-0.5 300.5,-0.5 306.5,-0.5 312.5,-6.5 312.5,-12.5 312.5,-12.5 312.5,-24.5 312.5,-24.5 312.5,-30.5 306.5,-36.5 300.5,-36.5 300.5,-36.5 250.5,-36.5 250.5,-36.5 244.5,-36.5 238.5,-30.5 238.5,-24.5 238.5,-24.5 238.5,-12.5 238.5,-12.5 238.5,-6.5 244.5,-0.5 250.5,-0.5"/>
<text text-anchor="middle" x="275.5" y="-14.8" font-family="Helvetica,sans-Serif" font-size="14.00" fill="#000000">nil_node</text>
</g>
<!-- node_0x561213a6afb0&#45;&gt;nil_0x561213a6afb0_L -->
<g id="edge7" class="edge">
<title>node_0x561213a6afb0&#45;&gt;nil_0x561213a6afb0_L</title>
<path fill="none" stroke="black" d="M291.27,-73.35C288.58,-64.17 285.84,-54.79 283.4,-46.48"/>
<polygon fill="black" stroke="black" points="286.69,-45.24 280.52,-36.63 279.97,-47.21 286.69,-45.24"/>
</g>
<!-- nil_0x561213a6afb0_R -->
<g id="node9" class="node">
<title>nil_0x561213a6afb0_R</title>
<path fill="lightgray" stroke="#000000" stroke-width="2.5" d="M342.5,-0.5C342.5,-0.5 392.5,-0.5 392.5,-0.5 398.5,-0.5 404.5,-6.5 404.5,-12.5 404.5,-12.5 404.5,-24.5 404.5,-24.5 404.5,-30.5 398.5,-36.5 392.5,-36.5 392.5,-36.5 342.5,-36.5 342.5,-36.5 336.5,-36.5 330.5,-30.5 330.5,-24.5 330.5,-24.5 330.5,-12.5 330.5,-12.5 330.5,-6.5 336.5,-0.5 342.5,-0.5"/>
<text text-anchor="middle" x="367.5" y="-14.8" font-family="Helvetica,sans-Serif" font-size="14.00" fill="#000000">nil_node</text>
</g>
<!-- node_0x561213a6afb0&#45;&gt;nil_0x561213a6afb0_R -->
<g id="edge8" class="edge">
<title>node_0x561213a6afb0&#45;&gt;nil_0x561213a6afb0_R</title>
<path fill="none" stroke="black" d="M333.23,-73.35C339.4,-63.66 345.71,-53.74 351.2,-45.11"/>
<polygon fill="black" stroke="black" points="354.18,-46.95 356.6,-36.63 348.28,-43.19 354.18,-46.95"/>
</g>
<!-- nil_0x561213a6af50_L -->
<g id="node10" class="node">
<title>nil_0x561213a6af50_L</title>
<path fill="lightgray" stroke="#000000" stroke-width="2.5" d="M497.5,-101.5C497.5,-101.5 547.5,-101.5 547.5,-101.5 553.5,-101.5 559.5,-107.5 559.5,-113.5 559.5,-113.5 559.5,-125.5 559.5,-125.5 559.5,-131.5 553.5,-137.5 547.5,-137.5 547.5,-137.5 497.5,-137.5 497.5,-137.5 491.5,-137.5 485.5,-131.5 485.5,-125.5 485.5,-125.5 485.5,-113.5 485.5,-113.5 485.5,-107.5 491.5,-101.5 497.5,-101.5"/>
<text text-anchor="middle" x="522.5" y="-115.8" font-family="Helvetica,sans-Serif" font-size="14.00" fill="#000000">nil_node</text>
</g>
<!-- node_0x561213a6af50&#45;&gt;nil_0x561213a6af50_L -->
<g id="edge9" class="edge">
<title>node_0x561213a6af50&#45;&gt;nil_0x561213a6af50_L</title>
<path fill="none" stroke="black" d="M544.42,-202.37C539.5,-184 533.98,-163.4 529.72,-147.45"/>
<polygon fill="black" stroke="black" points="533.08,-146.47 527.11,-137.72 526.31,-148.28 533.08,-146.47"/>
</g>
<!-- nil_0x561213a6af50_R -->
<g id="node11" class="node">
<title>nil_0x561213a6af50_R</title>
<path fill="lightgray" stroke="#000000" stroke-width="2.5" d="M589.5,-101.5C589.5,-101.5 639.5,-101.5 639.5,-101.5 645.5,-101.5 651.5,-107.5 651.5,-113.5 651.5,-113.5 651.5,-125.5 651.5,-125.5 651.5,-131.5 645.5,-137.5 639.5,-137.5 639.5,-137.5 589.5,-137.5 589.5,-137.5 583.5,-137.5 577.5,-131.5 577.5,-125.5 577.5,-125.5 577.5,-113.5 577.5,-113.5 577.5,-107.5 583.5,-101.5 589.5,-101.5"/>
<text text-anchor="middle" x="614.5" y="-115.8" font-family="Helvetica,sans-Serif" font-size="14.00" fill="#000000">nil_node</text>
</g>
<!-- node_0x561213a6af50&#45;&gt;nil_0x561213a6af50_R -->
<g id="edge10" class="edge">
<title>node_0x561213a6af50&#45;&gt;nil_0x561213a6af50_R</title>
<path fill="none" stroke="black" d="M577.11,-202.37C585.58,-183.83 595.09,-163 602.4,-147"/>
<polygon fill="black" stroke="black" points="605.67,-148.27 606.64,-137.72 599.3,-145.36 605.67,-148.27"/>
</g>
</g>
</svg>
