<?xml version="1.0" encoding="UTF-8" standalone="no"?>
<!DOCTYPE svg PUBLIC "-//W3C//DTD SVG 1.1//EN"
 "http://www.w3.org/Graphics/SVG/1.1/DTD/svg11.dtd">
<!-- Generated by graphviz version 2.43.0 (0)
 -->
<!-- Title: G Pages: 1 -->
<svg width="1215pt" height="561pt"
 viewBox="0.00 0.00 1215.00 561.00" xmlns="http://www.w3.org/2000/svg" xmlns:xlink="http://www.w3.org/1999/xlink">
<g id="graph0" class="graph" transform="scale(1 1) rotate(0) translate(4 557)">
<title>G</title>
<polygon fill="lemonchiffon" stroke="transparent" points="-4,4 -4,-557 1211,-557 1211,4 -4,4"/>
<!-- node_0x5ec2be95e3b0 -->
<g id="node1" class="node">
<title>node_0x5ec2be95e3b0</title>
<path fill="lightgray" stroke="#000000" stroke-width="2.5" d="M398.5,-460.5C398.5,-460.5 719.5,-460.5 719.5,-460.5 725.5,-460.5 731.5,-466.5 731.5,-472.5 731.5,-472.5 731.5,-540.5 731.5,-540.5 731.5,-546.5 725.5,-552.5 719.5,-552.5 719.5,-552.5 398.5,-552.5 398.5,-552.5 392.5,-552.5 386.5,-546.5 386.5,-540.5 386.5,-540.5 386.5,-472.5 386.5,-472.5 386.5,-466.5 392.5,-460.5 398.5,-460.5"/>
<text text-anchor="middle" x="559" y="-537.3" font-family="Helvetica,sans-Serif" font-size="14.00" fill="#000000">node_0x5ec2be95e3b0</text>
<polyline fill="none" stroke="#000000" stroke-width="2.5" points="386.5,-529.5 731.5,-529.5 "/>
<text text-anchor="middle" x="559" y="-514.3" font-family="Helvetica,sans-Serif" font-size="14.00" fill="#000000">key: 31</text>
<polyline fill="none" stroke="#000000" stroke-width="2.5" points="386.5,-506.5 731.5,-506.5 "/>
<text text-anchor="middle" x="559" y="-491.3" font-family="Helvetica,sans-Serif" font-size="14.00" fill="#000000">parent: 0</text>
<polyline fill="none" stroke="#000000" stroke-width="2.5" points="386.5,-483.5 731.5,-483.5 "/>
<text text-anchor="middle" x="469" y="-468.3" font-family="Helvetica,sans-Serif" font-size="14.00" fill="#000000">left: 0x5ec2be95e2f0</text>
<polyline fill="none" stroke="#000000" stroke-width="2.5" points="551.5,-460.5 551.5,-483.5 "/>
<text text-anchor="middle" x="641.5" y="-468.3" font-family="Helvetica,sans-Serif" font-size="14.00" fill="#000000">right: 0x5ec2be95e410</text>
</g>
<!-- node_0x5ec2be95e2f0 -->
<g id="node2" class="node">
<title>node_0x5ec2be95e2f0</title>
<path fill="salmon" stroke="#000000" stroke-width="2.5" d="M213.5,-331.5C213.5,-331.5 538.5,-331.5 538.5,-331.5 544.5,-331.5 550.5,-337.5 550.5,-343.5 550.5,-343.5 550.5,-411.5 550.5,-411.5 550.5,-417.5 544.5,-423.5 538.5,-423.5 538.5,-423.5 213.5,-423.5 213.5,-423.5 207.5,-423.5 201.5,-417.5 201.5,-411.5 201.5,-411.5 201.5,-343.5 201.5,-343.5 201.5,-337.5 207.5,-331.5 213.5,-331.5"/>
<text text-anchor="middle" x="376" y="-408.3" font-family="Helvetica,sans-Serif" font-size="14.00" fill="#000000">node_0x5ec2be95e2f0</text>
<polyline fill="none" stroke="#000000" stroke-width="2.5" points="201.5,-400.5 550.5,-400.5 "/>
<text text-anchor="middle" x="376" y="-385.3" font-family="Helvetica,sans-Serif" font-size="14.00" fill="#000000">key: 5</text>
<polyline fill="none" stroke="#000000" stroke-width="2.5" points="201.5,-377.5 550.5,-377.5 "/>
<text text-anchor="middle" x="376" y="-362.3" font-family="Helvetica,sans-Serif" font-size="14.00" fill="#000000">parent: 0x5ec2be95e3b0</text>
<polyline fill="none" stroke="#000000" stroke-width="2.5" points="201.5,-354.5 550.5,-354.5 "/>
<text text-anchor="middle" x="286" y="-339.3" font-family="Helvetica,sans-Serif" font-size="14.00" fill="#000000">left: 0x5ec2be95e350</text>
<polyline fill="none" stroke="#000000" stroke-width="2.5" points="370.5,-331.5 370.5,-354.5 "/>
<text text-anchor="middle" x="460.5" y="-339.3" font-family="Helvetica,sans-Serif" font-size="14.00" fill="#000000">right: 0x5ec2be95e320</text>
</g>
<!-- node_0x5ec2be95e3b0&#45;&gt;node_0x5ec2be95e2f0 -->
<g id="edge1" class="edge">
<title>node_0x5ec2be95e3b0&#45;&gt;node_0x5ec2be95e2f0</title>
<path fill="none" stroke="black" d="M493.97,-460.37C479.62,-450.41 464.33,-439.8 449.68,-429.63"/>
<polygon fill="black" stroke="black" points="451.34,-426.53 441.13,-423.7 447.35,-432.28 451.34,-426.53"/>
</g>
<!-- node_0x5ec2be95e410 -->
<g id="node6" class="node">
<title>node_0x5ec2be95e410</title>
<path fill="salmon" stroke="#000000" stroke-width="2.5" d="M581,-331.5C581,-331.5 905,-331.5 905,-331.5 911,-331.5 917,-337.5 917,-343.5 917,-343.5 917,-411.5 917,-411.5 917,-417.5 911,-423.5 905,-423.5 905,-423.5 581,-423.5 581,-423.5 575,-423.5 569,-417.5 569,-411.5 569,-411.5 569,-343.5 569,-343.5 569,-337.5 575,-331.5 581,-331.5"/>
<text text-anchor="middle" x="743" y="-408.3" font-family="Helvetica,sans-Serif" font-size="14.00" fill="#000000">node_0x5ec2be95e410</text>
<polyline fill="none" stroke="#000000" stroke-width="2.5" points="569,-400.5 917,-400.5 "/>
<text text-anchor="middle" x="743" y="-385.3" font-family="Helvetica,sans-Serif" font-size="14.00" fill="#000000">key: 65</text>
<polyline fill="none" stroke="#000000" stroke-width="2.5" points="569,-377.5 917,-377.5 "/>
<text text-anchor="middle" x="743" y="-362.3" font-family="Helvetica,sans-Serif" font-size="14.00" fill="#000000">parent: 0x5ec2be95e3b0</text>
<polyline fill="none" stroke="#000000" stroke-width="2.5" points="569,-354.5 917,-354.5 "/>
<text text-anchor="middle" x="653" y="-339.3" font-family="Helvetica,sans-Serif" font-size="14.00" fill="#000000">left: 0x5ec2be95e3e0</text>
<polyline fill="none" stroke="#000000" stroke-width="2.5" points="737,-331.5 737,-354.5 "/>
<text text-anchor="middle" x="827" y="-339.3" font-family="Helvetica,sans-Serif" font-size="14.00" fill="#000000">right: 0x5ec2be95e470</text>
</g>
<!-- node_0x5ec2be95e3b0&#45;&gt;node_0x5ec2be95e410 -->
<g id="edge2" class="edge">
<title>node_0x5ec2be95e3b0&#45;&gt;node_0x5ec2be95e410</title>
<path fill="none" stroke="black" d="M624.39,-460.37C638.81,-450.41 654.18,-439.8 668.92,-429.63"/>
<polygon fill="black" stroke="black" points="671.27,-432.26 677.51,-423.7 667.29,-426.5 671.27,-432.26"/>
</g>
<!-- node_0x5ec2be95e350 -->
<g id="node3" class="node">
<title>node_0x5ec2be95e350</title>
<path fill="lightgray" stroke="#000000" stroke-width="2.5" d="M101.5,-202.5C101.5,-202.5 314.5,-202.5 314.5,-202.5 320.5,-202.5 326.5,-208.5 326.5,-214.5 326.5,-214.5 326.5,-282.5 326.5,-282.5 326.5,-288.5 320.5,-294.5 314.5,-294.5 314.5,-294.5 101.5,-294.5 101.5,-294.5 95.5,-294.5 89.5,-288.5 89.5,-282.5 89.5,-282.5 89.5,-214.5 89.5,-214.5 89.5,-208.5 95.5,-202.5 101.5,-202.5"/>
<text text-anchor="middle" x="208" y="-279.3" font-family="Helvetica,sans-Serif" font-size="14.00" fill="#000000">node_0x5ec2be95e350</text>
<polyline fill="none" stroke="#000000" stroke-width="2.5" points="89.5,-271.5 326.5,-271.5 "/>
<text text-anchor="middle" x="208" y="-256.3" font-family="Helvetica,sans-Serif" font-size="14.00" fill="#000000">key: 4</text>
<polyline fill="none" stroke="#000000" stroke-width="2.5" points="89.5,-248.5 326.5,-248.5 "/>
<text text-anchor="middle" x="208" y="-233.3" font-family="Helvetica,sans-Serif" font-size="14.00" fill="#000000">parent: 0x5ec2be95e2f0</text>
<polyline fill="none" stroke="#000000" stroke-width="2.5" points="89.5,-225.5 326.5,-225.5 "/>
<text text-anchor="middle" x="174" y="-210.3" font-family="Helvetica,sans-Serif" font-size="14.00" fill="#000000">left: 0x5ec2be95e380</text>
<polyline fill="none" stroke="#000000" stroke-width="2.5" points="258.5,-202.5 258.5,-225.5 "/>
<text text-anchor="middle" x="292.5" y="-210.3" font-family="Helvetica,sans-Serif" font-size="14.00" fill="#000000">right: 0</text>
</g>
<!-- node_0x5ec2be95e2f0&#45;&gt;node_0x5ec2be95e350 -->
<g id="edge3" class="edge">
<title>node_0x5ec2be95e2f0&#45;&gt;node_0x5ec2be95e350</title>
<path fill="none" stroke="black" d="M316.3,-331.37C303.25,-321.51 289.36,-311 276.02,-300.92"/>
<polygon fill="black" stroke="black" points="277.88,-297.94 267.79,-294.7 273.66,-303.52 277.88,-297.94"/>
</g>
<!-- node_0x5ec2be95e320 -->
<g id="node5" class="node">
<title>node_0x5ec2be95e320</title>
<path fill="lightgray" stroke="#000000" stroke-width="2.5" d="M357,-202.5C357,-202.5 521,-202.5 521,-202.5 527,-202.5 533,-208.5 533,-214.5 533,-214.5 533,-282.5 533,-282.5 533,-288.5 527,-294.5 521,-294.5 521,-294.5 357,-294.5 357,-294.5 351,-294.5 345,-288.5 345,-282.5 345,-282.5 345,-214.5 345,-214.5 345,-208.5 351,-202.5 357,-202.5"/>
<text text-anchor="middle" x="439" y="-279.3" font-family="Helvetica,sans-Serif" font-size="14.00" fill="#000000">node_0x5ec2be95e320</text>
<polyline fill="none" stroke="#000000" stroke-width="2.5" points="345,-271.5 533,-271.5 "/>
<text text-anchor="middle" x="439" y="-256.3" font-family="Helvetica,sans-Serif" font-size="14.00" fill="#000000">key: 6</text>
<polyline fill="none" stroke="#000000" stroke-width="2.5" points="345,-248.5 533,-248.5 "/>
<text text-anchor="middle" x="439" y="-233.3" font-family="Helvetica,sans-Serif" font-size="14.00" fill="#000000">parent: 0x5ec2be95e2f0</text>
<polyline fill="none" stroke="#000000" stroke-width="2.5" points="345,-225.5 533,-225.5 "/>
<text text-anchor="middle" x="389" y="-210.3" font-family="Helvetica,sans-Serif" font-size="14.00" fill="#000000">left: 0</text>
<polyline fill="none" stroke="#000000" stroke-width="2.5" points="433,-202.5 433,-225.5 "/>
<text text-anchor="middle" x="483" y="-210.3" font-family="Helvetica,sans-Serif" font-size="14.00" fill="#000000">right: 0</text>
</g>
<!-- node_0x5ec2be95e2f0&#45;&gt;node_0x5ec2be95e320 -->
<g id="edge4" class="edge">
<title>node_0x5ec2be95e2f0&#45;&gt;node_0x5ec2be95e320</title>
<path fill="none" stroke="black" d="M398.39,-331.37C402.79,-322.49 407.46,-313.09 411.99,-303.95"/>
<polygon fill="black" stroke="black" points="415.16,-305.43 416.47,-294.92 408.89,-302.32 415.16,-305.43"/>
</g>
<!-- node_0x5ec2be95e380 -->
<g id="node4" class="node">
<title>node_0x5ec2be95e380</title>
<path fill="salmon" stroke="#000000" stroke-width="2.5" d="M12,-73.5C12,-73.5 180,-73.5 180,-73.5 186,-73.5 192,-79.5 192,-85.5 192,-85.5 192,-153.5 192,-153.5 192,-159.5 186,-165.5 180,-165.5 180,-165.5 12,-165.5 12,-165.5 6,-165.5 0,-159.5 0,-153.5 0,-153.5 0,-85.5 0,-85.5 0,-79.5 6,-73.5 12,-73.5"/>
<text text-anchor="middle" x="96" y="-150.3" font-family="Helvetica,sans-Serif" font-size="14.00" fill="#000000">node_0x5ec2be95e380</text>
<polyline fill="none" stroke="#000000" stroke-width="2.5" points="0,-142.5 192,-142.5 "/>
<text text-anchor="middle" x="96" y="-127.3" font-family="Helvetica,sans-Serif" font-size="14.00" fill="#000000">key: 3</text>
<polyline fill="none" stroke="#000000" stroke-width="2.5" points="0,-119.5 192,-119.5 "/>
<text text-anchor="middle" x="96" y="-104.3" font-family="Helvetica,sans-Serif" font-size="14.00" fill="#000000">parent: 0x5ec2be95e350</text>
<polyline fill="none" stroke="#000000" stroke-width="2.5" points="0,-96.5 192,-96.5 "/>
<text text-anchor="middle" x="45" y="-81.3" font-family="Helvetica,sans-Serif" font-size="14.00" fill="#000000">left: 0</text>
<polyline fill="none" stroke="#000000" stroke-width="2.5" points="90,-73.5 90,-96.5 "/>
<text text-anchor="middle" x="141" y="-81.3" font-family="Helvetica,sans-Serif" font-size="14.00" fill="#000000">right: 0</text>
</g>
<!-- node_0x5ec2be95e350&#45;&gt;node_0x5ec2be95e380 -->
<g id="edge5" class="edge">
<title>node_0x5ec2be95e350&#45;&gt;node_0x5ec2be95e380</title>
<path fill="none" stroke="black" d="M168.2,-202.37C159.96,-193.03 151.21,-183.11 142.76,-173.52"/>
<polygon fill="black" stroke="black" points="145.29,-171.1 136.05,-165.92 140.04,-175.73 145.29,-171.1"/>
</g>
<!-- nil_0x5ec2be95e350_R -->
<g id="node11" class="node">
<title>nil_0x5ec2be95e350_R</title>
<path fill="lightgray" stroke="#000000" stroke-width="2.5" d="M222,-101.5C222,-101.5 272,-101.5 272,-101.5 278,-101.5 284,-107.5 284,-113.5 284,-113.5 284,-125.5 284,-125.5 284,-131.5 278,-137.5 272,-137.5 272,-137.5 222,-137.5 222,-137.5 216,-137.5 210,-131.5 210,-125.5 210,-125.5 210,-113.5 210,-113.5 210,-107.5 216,-101.5 222,-101.5"/>
<text text-anchor="middle" x="247" y="-115.8" font-family="Helvetica,sans-Serif" font-size="14.00" fill="#000000">nil_node</text>
</g>
<!-- node_0x5ec2be95e350&#45;&gt;nil_0x5ec2be95e350_R -->
<g id="edge6" class="edge">
<title>node_0x5ec2be95e350&#45;&gt;nil_0x5ec2be95e350_R</title>
<path fill="none" stroke="black" d="M221.86,-202.37C227.5,-184 233.83,-163.4 238.72,-147.45"/>
<polygon fill="black" stroke="black" points="242.12,-148.3 241.71,-137.72 235.43,-146.25 242.12,-148.3"/>
</g>
<!-- nil_0x5ec2be95e380_L -->
<g id="node12" class="node">
<title>nil_0x5ec2be95e380_L</title>
<path fill="lightgray" stroke="#000000" stroke-width="2.5" d="M25,-0.5C25,-0.5 75,-0.5 75,-0.5 81,-0.5 87,-6.5 87,-12.5 87,-12.5 87,-24.5 87,-24.5 87,-30.5 81,-36.5 75,-36.5 75,-36.5 25,-36.5 25,-36.5 19,-36.5 13,-30.5 13,-24.5 13,-24.5 13,-12.5 13,-12.5 13,-6.5 19,-0.5 25,-0.5"/>
<text text-anchor="middle" x="50" y="-14.8" font-family="Helvetica,sans-Serif" font-size="14.00" fill="#000000">nil_node</text>
</g>
<!-- node_0x5ec2be95e380&#45;&gt;nil_0x5ec2be95e380_L -->
<g id="edge7" class="edge">
<title>node_0x5ec2be95e380&#45;&gt;nil_0x5ec2be95e380_L</title>
<path fill="none" stroke="black" d="M75.02,-73.35C70.66,-63.96 66.2,-54.37 62.28,-45.93"/>
<polygon fill="black" stroke="black" points="65.35,-44.23 57.96,-36.63 59,-47.18 65.35,-44.23"/>
</g>
<!-- nil_0x5ec2be95e380_R -->
<g id="node13" class="node">
<title>nil_0x5ec2be95e380_R</title>
<path fill="lightgray" stroke="#000000" stroke-width="2.5" d="M117,-0.5C117,-0.5 167,-0.5 167,-0.5 173,-0.5 179,-6.5 179,-12.5 179,-12.5 179,-24.5 179,-24.5 179,-30.5 173,-36.5 167,-36.5 167,-36.5 117,-36.5 117,-36.5 111,-36.5 105,-30.5 105,-24.5 105,-24.5 105,-12.5 105,-12.5 105,-6.5 111,-0.5 117,-0.5"/>
<text text-anchor="middle" x="142" y="-14.8" font-family="Helvetica,sans-Serif" font-size="14.00" fill="#000000">nil_node</text>
</g>
<!-- node_0x5ec2be95e380&#45;&gt;nil_0x5ec2be95e380_R -->
<g id="edge8" class="edge">
<title>node_0x5ec2be95e380&#45;&gt;nil_0x5ec2be95e380_R</title>
<path fill="none" stroke="black" d="M116.98,-73.35C121.34,-63.96 125.8,-54.37 129.72,-45.93"/>
<polygon fill="black" stroke="black" points="133,-47.18 134.04,-36.63 126.65,-44.23 133,-47.18"/>
</g>
<!-- nil_0x5ec2be95e320_L -->
<g id="node14" class="node">
<title>nil_0x5ec2be95e320_L</title>
<path fill="lightgray" stroke="#000000" stroke-width="2.5" d="M383,-101.5C383,-101.5 433,-101.5 433,-101.5 439,-101.5 445,-107.5 445,-113.5 445,-113.5 445,-125.5 445,-125.5 445,-131.5 439,-137.5 433,-137.5 433,-137.5 383,-137.5 383,-137.5 377,-137.5 371,-131.5 371,-125.5 371,-125.5 371,-113.5 371,-113.5 371,-107.5 377,-101.5 383,-101.5"/>
<text text-anchor="middle" x="408" y="-115.8" font-family="Helvetica,sans-Serif" font-size="14.00" fill="#000000">nil_node</text>
</g>
<!-- node_0x5ec2be95e320&#45;&gt;nil_0x5ec2be95e320_L -->
<g id="edge9" class="edge">
<title>node_0x5ec2be95e320&#45;&gt;nil_0x5ec2be95e320_L</title>
<path fill="none" stroke="black" d="M427.98,-202.37C423.5,-184 418.47,-163.4 414.58,-147.45"/>
<polygon fill="black" stroke="black" points="417.97,-146.6 412.2,-137.72 411.17,-148.26 417.97,-146.6"/>
</g>
<!-- nil_0x5ec2be95e320_R -->
<g id="node15" class="node">
<title>nil_0x5ec2be95e320_R</title>
<path fill="lightgray" stroke="#000000" stroke-width="2.5" d="M475,-101.5C475,-101.5 525,-101.5 525,-101.5 531,-101.5 537,-107.5 537,-113.5 537,-113.5 537,-125.5 537,-125.5 537,-131.5 531,-137.5 525,-137.5 525,-137.5 475,-137.5 475,-137.5 469,-137.5 463,-131.5 463,-125.5 463,-125.5 463,-113.5 463,-113.5 463,-107.5 469,-101.5 475,-101.5"/>
<text text-anchor="middle" x="500" y="-115.8" font-family="Helvetica,sans-Serif" font-size="14.00" fill="#000000">nil_node</text>
</g>
<!-- node_0x5ec2be95e320&#45;&gt;nil_0x5ec2be95e320_R -->
<g id="edge10" class="edge">
<title>node_0x5ec2be95e320&#45;&gt;nil_0x5ec2be95e320_R</title>
<path fill="none" stroke="black" d="M460.68,-202.37C469.58,-183.83 479.58,-163 487.27,-147"/>
<polygon fill="black" stroke="black" points="490.56,-148.25 491.73,-137.72 484.25,-145.22 490.56,-148.25"/>
</g>
<!-- node_0x5ec2be95e3e0 -->
<g id="node7" class="node">
<title>node_0x5ec2be95e3e0</title>
<path fill="lightgray" stroke="#000000" stroke-width="2.5" d="M597,-202.5C597,-202.5 765,-202.5 765,-202.5 771,-202.5 777,-208.5 777,-214.5 777,-214.5 777,-282.5 777,-282.5 777,-288.5 771,-294.5 765,-294.5 765,-294.5 597,-294.5 597,-294.5 591,-294.5 585,-288.5 585,-282.5 585,-282.5 585,-214.5 585,-214.5 585,-208.5 591,-202.5 597,-202.5"/>
<text text-anchor="middle" x="681" y="-279.3" font-family="Helvetica,sans-Serif" font-size="14.00" fill="#000000">node_0x5ec2be95e3e0</text>
<polyline fill="none" stroke="#000000" stroke-width="2.5" points="585,-271.5 777,-271.5 "/>
<text text-anchor="middle" x="681" y="-256.3" font-family="Helvetica,sans-Serif" font-size="14.00" fill="#000000">key: 34</text>
<polyline fill="none" stroke="#000000" stroke-width="2.5" points="585,-248.5 777,-248.5 "/>
<text text-anchor="middle" x="681" y="-233.3" font-family="Helvetica,sans-Serif" font-size="14.00" fill="#000000">parent: 0x5ec2be95e410</text>
<polyline fill="none" stroke="#000000" stroke-width="2.5" points="585,-225.5 777,-225.5 "/>
<text text-anchor="middle" x="630" y="-210.3" font-family="Helvetica,sans-Serif" font-size="14.00" fill="#000000">left: 0</text>
<polyline fill="none" stroke="#000000" stroke-width="2.5" points="675,-202.5 675,-225.5 "/>
<text text-anchor="middle" x="726" y="-210.3" font-family="Helvetica,sans-Serif" font-size="14.00" fill="#000000">right: 0</text>
</g>
<!-- node_0x5ec2be95e410&#45;&gt;node_0x5ec2be95e3e0 -->
<g id="edge11" class="edge">
<title>node_0x5ec2be95e410&#45;&gt;node_0x5ec2be95e3e0</title>
<path fill="none" stroke="black" d="M720.97,-331.37C716.63,-322.49 712.04,-313.09 707.58,-303.95"/>
<polygon fill="black" stroke="black" points="710.7,-302.37 703.17,-294.92 704.41,-305.44 710.7,-302.37"/>
</g>
<!-- node_0x5ec2be95e470 -->
<g id="node8" class="node">
<title>node_0x5ec2be95e470</title>
<path fill="lightgray" stroke="#000000" stroke-width="2.5" d="M807,-202.5C807,-202.5 1131,-202.5 1131,-202.5 1137,-202.5 1143,-208.5 1143,-214.5 1143,-214.5 1143,-282.5 1143,-282.5 1143,-288.5 1137,-294.5 1131,-294.5 1131,-294.5 807,-294.5 807,-294.5 801,-294.5 795,-288.5 795,-282.5 795,-282.5 795,-214.5 795,-214.5 795,-208.5 801,-202.5 807,-202.5"/>
<text text-anchor="middle" x="969" y="-279.3" font-family="Helvetica,sans-Serif" font-size="14.00" fill="#000000">node_0x5ec2be95e470</text>
<polyline fill="none" stroke="#000000" stroke-width="2.5" points="795,-271.5 1143,-271.5 "/>
<text text-anchor="middle" x="969" y="-256.3" font-family="Helvetica,sans-Serif" font-size="14.00" fill="#000000">key: 85</text>
<polyline fill="none" stroke="#000000" stroke-width="2.5" points="795,-248.5 1143,-248.5 "/>
<text text-anchor="middle" x="969" y="-233.3" font-family="Helvetica,sans-Serif" font-size="14.00" fill="#000000">parent: 0x5ec2be95e410</text>
<polyline fill="none" stroke="#000000" stroke-width="2.5" points="795,-225.5 1143,-225.5 "/>
<text text-anchor="middle" x="879.5" y="-210.3" font-family="Helvetica,sans-Serif" font-size="14.00" fill="#000000">left: 0x5ec2be95e440</text>
<polyline fill="none" stroke="#000000" stroke-width="2.5" points="964,-202.5 964,-225.5 "/>
<text text-anchor="middle" x="1053.5" y="-210.3" font-family="Helvetica,sans-Serif" font-size="14.00" fill="#000000">right: 0x5ec2be95e4a0</text>
</g>
<!-- node_0x5ec2be95e410&#45;&gt;node_0x5ec2be95e470 -->
<g id="edge12" class="edge">
<title>node_0x5ec2be95e410&#45;&gt;node_0x5ec2be95e470</title>
<path fill="none" stroke="black" d="M823.32,-331.37C841.61,-321.09 861.15,-310.11 879.78,-299.63"/>
<polygon fill="black" stroke="black" points="881.56,-302.65 888.56,-294.7 878.13,-296.55 881.56,-302.65"/>
</g>
<!-- nil_0x5ec2be95e3e0_L -->
<g id="node16" class="node">
<title>nil_0x5ec2be95e3e0_L</title>
<path fill="lightgray" stroke="#000000" stroke-width="2.5" d="M596,-101.5C596,-101.5 646,-101.5 646,-101.5 652,-101.5 658,-107.5 658,-113.5 658,-113.5 658,-125.5 658,-125.5 658,-131.5 652,-137.5 646,-137.5 646,-137.5 596,-137.5 596,-137.5 590,-137.5 584,-131.5 584,-125.5 584,-125.5 584,-113.5 584,-113.5 584,-107.5 590,-101.5 596,-101.5"/>
<text text-anchor="middle" x="621" y="-115.8" font-family="Helvetica,sans-Serif" font-size="14.00" fill="#000000">nil_node</text>
</g>
<!-- node_0x5ec2be95e3e0&#45;&gt;nil_0x5ec2be95e3e0_L -->
<g id="edge13" class="edge">
<title>node_0x5ec2be95e3e0&#45;&gt;nil_0x5ec2be95e3e0_L</title>
<path fill="none" stroke="black" d="M659.68,-202.37C650.92,-183.83 641.08,-163 633.52,-147"/>
<polygon fill="black" stroke="black" points="636.57,-145.26 629.13,-137.72 630.24,-148.25 636.57,-145.26"/>
</g>
<!-- nil_0x5ec2be95e3e0_R -->
<g id="node17" class="node">
<title>nil_0x5ec2be95e3e0_R</title>
<path fill="lightgray" stroke="#000000" stroke-width="2.5" d="M688,-101.5C688,-101.5 738,-101.5 738,-101.5 744,-101.5 750,-107.5 750,-113.5 750,-113.5 750,-125.5 750,-125.5 750,-131.5 744,-137.5 738,-137.5 738,-137.5 688,-137.5 688,-137.5 682,-137.5 676,-131.5 676,-125.5 676,-125.5 676,-113.5 676,-113.5 676,-107.5 682,-101.5 688,-101.5"/>
<text text-anchor="middle" x="713" y="-115.8" font-family="Helvetica,sans-Serif" font-size="14.00" fill="#000000">nil_node</text>
</g>
<!-- node_0x5ec2be95e3e0&#45;&gt;nil_0x5ec2be95e3e0_R -->
<g id="edge14" class="edge">
<title>node_0x5ec2be95e3e0&#45;&gt;nil_0x5ec2be95e3e0_R</title>
<path fill="none" stroke="black" d="M692.37,-202.37C697,-184 702.19,-163.4 706.21,-147.45"/>
<polygon fill="black" stroke="black" points="709.61,-148.27 708.66,-137.72 702.82,-146.56 709.61,-148.27"/>
</g>
<!-- node_0x5ec2be95e440 -->
<g id="node9" class="node">
<title>node_0x5ec2be95e440</title>
<path fill="salmon" stroke="#000000" stroke-width="2.5" d="M817,-73.5C817,-73.5 985,-73.5 985,-73.5 991,-73.5 997,-79.5 997,-85.5 997,-85.5 997,-153.5 997,-153.5 997,-159.5 991,-165.5 985,-165.5 985,-165.5 817,-165.5 817,-165.5 811,-165.5 805,-159.5 805,-153.5 805,-153.5 805,-85.5 805,-85.5 805,-79.5 811,-73.5 817,-73.5"/>
<text text-anchor="middle" x="901" y="-150.3" font-family="Helvetica,sans-Serif" font-size="14.00" fill="#000000">node_0x5ec2be95e440</text>
<polyline fill="none" stroke="#000000" stroke-width="2.5" points="805,-142.5 997,-142.5 "/>
<text text-anchor="middle" x="901" y="-127.3" font-family="Helvetica,sans-Serif" font-size="14.00" fill="#000000">key: 75</text>
<polyline fill="none" stroke="#000000" stroke-width="2.5" points="805,-119.5 997,-119.5 "/>
<text text-anchor="middle" x="901" y="-104.3" font-family="Helvetica,sans-Serif" font-size="14.00" fill="#000000">parent: 0x5ec2be95e470</text>
<polyline fill="none" stroke="#000000" stroke-width="2.5" points="805,-96.5 997,-96.5 "/>
<text text-anchor="middle" x="850" y="-81.3" font-family="Helvetica,sans-Serif" font-size="14.00" fill="#000000">left: 0</text>
<polyline fill="none" stroke="#000000" stroke-width="2.5" points="895,-73.5 895,-96.5 "/>
<text text-anchor="middle" x="946" y="-81.3" font-family="Helvetica,sans-Serif" font-size="14.00" fill="#000000">right: 0</text>
</g>
<!-- node_0x5ec2be95e470&#45;&gt;node_0x5ec2be95e440 -->
<g id="edge15" class="edge">
<title>node_0x5ec2be95e470&#45;&gt;node_0x5ec2be95e440</title>
<path fill="none" stroke="black" d="M944.83,-202.37C940.08,-193.49 935.05,-184.09 930.15,-174.95"/>
<polygon fill="black" stroke="black" points="933.12,-173.08 925.32,-165.92 926.95,-176.38 933.12,-173.08"/>
</g>
<!-- node_0x5ec2be95e4a0 -->
<g id="node10" class="node">
<title>node_0x5ec2be95e4a0</title>
<path fill="salmon" stroke="#000000" stroke-width="2.5" d="M1027,-73.5C1027,-73.5 1195,-73.5 1195,-73.5 1201,-73.5 1207,-79.5 1207,-85.5 1207,-85.5 1207,-153.5 1207,-153.5 1207,-159.5 1201,-165.5 1195,-165.5 1195,-165.5 1027,-165.5 1027,-165.5 1021,-165.5 1015,-159.5 1015,-153.5 1015,-153.5 1015,-85.5 1015,-85.5 1015,-79.5 1021,-73.5 1027,-73.5"/>
<text text-anchor="middle" x="1111" y="-150.3" font-family="Helvetica,sans-Serif" font-size="14.00" fill="#000000">node_0x5ec2be95e4a0</text>
<polyline fill="none" stroke="#000000" stroke-width="2.5" points="1015,-142.5 1207,-142.5 "/>
<text text-anchor="middle" x="1111" y="-127.3" font-family="Helvetica,sans-Serif" font-size="14.00" fill="#000000">key: 95</text>
<polyline fill="none" stroke="#000000" stroke-width="2.5" points="1015,-119.5 1207,-119.5 "/>
<text text-anchor="middle" x="1111" y="-104.3" font-family="Helvetica,sans-Serif" font-size="14.00" fill="#000000">parent: 0x5ec2be95e470</text>
<polyline fill="none" stroke="#000000" stroke-width="2.5" points="1015,-96.5 1207,-96.5 "/>
<text text-anchor="middle" x="1060" y="-81.3" font-family="Helvetica,sans-Serif" font-size="14.00" fill="#000000">left: 0</text>
<polyline fill="none" stroke="#000000" stroke-width="2.5" points="1105,-73.5 1105,-96.5 "/>
<text text-anchor="middle" x="1156" y="-81.3" font-family="Helvetica,sans-Serif" font-size="14.00" fill="#000000">right: 0</text>
</g>
<!-- node_0x5ec2be95e470&#45;&gt;node_0x5ec2be95e4a0 -->
<g id="edge16" class="edge">
<title>node_0x5ec2be95e470&#45;&gt;node_0x5ec2be95e4a0</title>
<path fill="none" stroke="black" d="M1019.46,-202.37C1030.22,-192.75 1041.65,-182.52 1052.67,-172.67"/>
<polygon fill="black" stroke="black" points="1055.1,-175.19 1060.22,-165.92 1050.43,-169.97 1055.1,-175.19"/>
</g>
<!-- nil_0x5ec2be95e440_L -->
<g id="node18" class="node">
<title>nil_0x5ec2be95e440_L</title>
<path fill="lightgray" stroke="#000000" stroke-width="2.5" d="M820,-0.5C820,-0.5 870,-0.5 870,-0.5 876,-0.5 882,-6.5 882,-12.5 882,-12.5 882,-24.5 882,-24.5 882,-30.5 876,-36.5 870,-36.5 870,-36.5 820,-36.5 820,-36.5 814,-36.5 808,-30.5 808,-24.5 808,-24.5 808,-12.5 808,-12.5 808,-6.5 814,-0.5 820,-0.5"/>
<text text-anchor="middle" x="845" y="-14.8" font-family="Helvetica,sans-Serif" font-size="14.00" fill="#000000">nil_node</text>
</g>
<!-- node_0x5ec2be95e440&#45;&gt;nil_0x5ec2be95e440_L -->
<g id="edge17" class="edge">
<title>node_0x5ec2be95e440&#45;&gt;nil_0x5ec2be95e440_L</title>
<path fill="none" stroke="black" d="M875.46,-73.35C870.03,-63.76 864.49,-53.95 859.64,-45.38"/>
<polygon fill="black" stroke="black" points="862.66,-43.61 854.69,-36.63 856.57,-47.06 862.66,-43.61"/>
</g>
<!-- nil_0x5ec2be95e440_R -->
<g id="node19" class="node">
<title>nil_0x5ec2be95e440_R</title>
<path fill="lightgray" stroke="#000000" stroke-width="2.5" d="M912,-0.5C912,-0.5 962,-0.5 962,-0.5 968,-0.5 974,-6.5 974,-12.5 974,-12.5 974,-24.5 974,-24.5 974,-30.5 968,-36.5 962,-36.5 962,-36.5 912,-36.5 912,-36.5 906,-36.5 900,-30.5 900,-24.5 900,-24.5 900,-12.5 900,-12.5 900,-6.5 906,-0.5 912,-0.5"/>
<text text-anchor="middle" x="937" y="-14.8" font-family="Helvetica,sans-Serif" font-size="14.00" fill="#000000">nil_node</text>
</g>
<!-- node_0x5ec2be95e440&#45;&gt;nil_0x5ec2be95e440_R -->
<g id="edge18" class="edge">
<title>node_0x5ec2be95e440&#45;&gt;nil_0x5ec2be95e440_R</title>
<path fill="none" stroke="black" d="M917.42,-73.35C920.79,-64.06 924.24,-54.58 927.29,-46.2"/>
<polygon fill="black" stroke="black" points="930.64,-47.23 930.77,-36.63 924.06,-44.83 930.64,-47.23"/>
</g>
<!-- nil_0x5ec2be95e4a0_L -->
<g id="node20" class="node">
<title>nil_0x5ec2be95e4a0_L</title>
<path fill="lightgray" stroke="#000000" stroke-width="2.5" d="M1040,-0.5C1040,-0.5 1090,-0.5 1090,-0.5 1096,-0.5 1102,-6.5 1102,-12.5 1102,-12.5 1102,-24.5 1102,-24.5 1102,-30.5 1096,-36.5 1090,-36.5 1090,-36.5 1040,-36.5 1040,-36.5 1034,-36.5 1028,-30.5 1028,-24.5 1028,-24.5 1028,-12.5 1028,-12.5 1028,-6.5 1034,-0.5 1040,-0.5"/>
<text text-anchor="middle" x="1065" y="-14.8" font-family="Helvetica,sans-Serif" font-size="14.00" fill="#000000">nil_node</text>
</g>
<!-- node_0x5ec2be95e4a0&#45;&gt;nil_0x5ec2be95e4a0_L -->
<g id="edge19" class="edge">
<title>node_0x5ec2be95e4a0&#45;&gt;nil_0x5ec2be95e4a0_L</title>
<path fill="none" stroke="black" d="M1090.02,-73.35C1085.66,-63.96 1081.2,-54.37 1077.28,-45.93"/>
<polygon fill="black" stroke="black" points="1080.35,-44.23 1072.96,-36.63 1074,-47.18 1080.35,-44.23"/>
</g>
<!-- nil_0x5ec2be95e4a0_R -->
<g id="node21" class="node">
<title>nil_0x5ec2be95e4a0_R</title>
<path fill="lightgray" stroke="#000000" stroke-width="2.5" d="M1132,-0.5C1132,-0.5 1182,-0.5 1182,-0.5 1188,-0.5 1194,-6.5 1194,-12.5 1194,-12.5 1194,-24.5 1194,-24.5 1194,-30.5 1188,-36.5 1182,-36.5 1182,-36.5 1132,-36.5 1132,-36.5 1126,-36.5 1120,-30.5 1120,-24.5 1120,-24.5 1120,-12.5 1120,-12.5 1120,-6.5 1126,-0.5 1132,-0.5"/>
<text text-anchor="middle" x="1157" y="-14.8" font-family="Helvetica,sans-Serif" font-size="14.00" fill="#000000">nil_node</text>
</g>
<!-- node_0x5ec2be95e4a0&#45;&gt;nil_0x5ec2be95e4a0_R -->
<g id="edge20" class="edge">
<title>node_0x5ec2be95e4a0&#45;&gt;nil_0x5ec2be95e4a0_R</title>
<path fill="none" stroke="black" d="M1131.98,-73.35C1136.34,-63.96 1140.8,-54.37 1144.72,-45.93"/>
<polygon fill="black" stroke="black" points="1148,-47.18 1149.04,-36.63 1141.65,-44.23 1148,-47.18"/>
</g>
</g>
</svg>
